G04 Layer: TopSilkLayer*
G04 EasyEDA v6.3.22, 2020-02-04T20:47:36+01:00*
G04 23f8c3a8da344597b0e8ce6df696b462,1e61c1b39cbf46459d8771e8f21e6a9c,10*
G04 Gerber Generator version 0.2*
G04 Scale: 100 percent, Rotated: No, Reflected: No *
G04 Dimensions in millimeters *
G04 leading zeros omitted , absolute positions ,3 integer and 3 decimal *
%FSLAX33Y33*%
%MOMM*%
G90*
G71D02*

%ADD10C,0.254000*%
%ADD30C,0.101600*%
%ADD31C,0.199898*%
%ADD32C,0.100000*%
%ADD33C,0.127000*%

%LPD*%
G54D30*
G01X33610Y32310D02*
G01X32049Y32310D01*
G01X33610Y33330D02*
G01X32049Y33330D01*
G01X33470Y32310D02*
G01X33470Y33330D01*
G01X32050Y32310D02*
G01X32050Y33330D01*
G01X33610Y32310D02*
G01X33610Y33330D01*
G54D31*
G01X32560Y38120D02*
G01X32660Y37920D01*
G01X32360Y37820D01*
G01X32560Y38020D01*
G01X32960Y37720D01*
G01X32159Y37720D01*
G01X32560Y38320D01*
G01X32960Y37720D01*
G54D30*
G01X37459Y49030D02*
G01X39020Y49030D01*
G01X37459Y48010D02*
G01X39020Y48010D01*
G01X37599Y49030D02*
G01X37600Y48010D01*
G01X39020Y49030D02*
G01X39020Y48010D01*
G01X37459Y49030D02*
G01X37459Y48010D01*
G01X41160Y48010D02*
G01X39599Y48010D01*
G01X41160Y49030D02*
G01X39599Y49030D01*
G01X41020Y48010D02*
G01X41020Y49030D01*
G01X39599Y48010D02*
G01X39599Y49030D01*
G01X41160Y48010D02*
G01X41160Y49030D01*
G01X38879Y31389D02*
G01X37319Y31389D01*
G01X38879Y32409D02*
G01X37319Y32409D01*
G01X38739Y31389D02*
G01X38739Y32409D01*
G01X37319Y31389D02*
G01X37319Y32409D01*
G01X38879Y31389D02*
G01X38879Y32409D01*
G01X38910Y30010D02*
G01X37349Y30010D01*
G01X38910Y31030D02*
G01X37349Y31030D01*
G01X38770Y30010D02*
G01X38770Y31030D01*
G01X37349Y30010D02*
G01X37349Y31030D01*
G01X38910Y30010D02*
G01X38910Y31030D01*
G01X35160Y48010D02*
G01X33599Y48010D01*
G01X35160Y49030D02*
G01X33599Y49030D01*
G01X35020Y48010D02*
G01X35019Y49030D01*
G01X33599Y48010D02*
G01X33599Y49030D01*
G01X35160Y48010D02*
G01X35160Y49030D01*
G01X33610Y41810D02*
G01X32049Y41810D01*
G01X33610Y42830D02*
G01X32049Y42830D01*
G01X33470Y41810D02*
G01X33470Y42830D01*
G01X32050Y41810D02*
G01X32050Y42830D01*
G01X33610Y41810D02*
G01X33610Y42830D01*
G54D10*
G01X31711Y23887D02*
G01X36537Y23887D01*
G01X36537Y27036D01*
G01X31711Y27036D01*
G01X31711Y27036D02*
G01X31711Y26097D01*
G01X31711Y24827D02*
G01X31711Y23887D01*
G54D32*
G01X34458Y40520D02*
G01X34457Y40219D01*
G01X34759Y40219D01*
G01X37160Y40220D02*
G01X37461Y40219D01*
G01X37461Y40521D01*
G01X37460Y42920D02*
G01X37460Y43220D01*
G01X37160Y43220D01*
G01X34760Y43220D02*
G01X34458Y43221D01*
G01X34458Y42919D01*
G01X33054Y49316D02*
G01X33054Y49565D01*
G01X33237Y49428D01*
G01X33237Y49497D01*
G01X33260Y49542D01*
G01X33283Y49565D01*
G01X33352Y49588D01*
G01X33395Y49588D01*
G01X33463Y49565D01*
G01X33509Y49519D01*
G01X33532Y49451D01*
G01X33532Y49382D01*
G01X33509Y49316D01*
G01X33486Y49293D01*
G01X33440Y49270D01*
G01X33418Y49761D02*
G01X33440Y49738D01*
G01X33463Y49761D01*
G01X33440Y49784D01*
G01X33418Y49761D01*
G01X33054Y49979D02*
G01X33054Y50228D01*
G01X33237Y50093D01*
G01X33237Y50159D01*
G01X33260Y50205D01*
G01X33283Y50228D01*
G01X33352Y50251D01*
G01X33395Y50251D01*
G01X33463Y50228D01*
G01X33509Y50182D01*
G01X33532Y50116D01*
G01X33532Y50048D01*
G01X33509Y49979D01*
G01X33486Y49956D01*
G01X33440Y49933D01*
G01X33054Y50401D02*
G01X33532Y50584D01*
G01X33054Y50764D02*
G01X33532Y50584D01*
G01X35556Y49928D02*
G01X36031Y49928D01*
G01X35556Y49770D02*
G01X35556Y50088D01*
G01X35556Y50238D02*
G01X36031Y50555D01*
G01X35556Y50555D02*
G01X36031Y50238D01*
G01X40055Y49770D02*
G01X40532Y49770D01*
G01X40055Y49770D02*
G01X40055Y49973D01*
G01X40077Y50042D01*
G01X40100Y50065D01*
G01X40146Y50088D01*
G01X40192Y50088D01*
G01X40237Y50065D01*
G01X40260Y50042D01*
G01X40283Y49973D01*
G01X40283Y49770D01*
G01X40283Y49928D02*
G01X40532Y50088D01*
G01X40055Y50238D02*
G01X40532Y50555D01*
G01X40055Y50555D02*
G01X40532Y50238D01*
G01X43464Y49792D02*
G01X43828Y49792D01*
G01X43896Y49769D01*
G01X43919Y49746D01*
G01X43942Y49700D01*
G01X43942Y49634D01*
G01X43919Y49589D01*
G01X43533Y49792D02*
G01X43487Y49746D01*
G01X43464Y49700D01*
G01X43464Y49634D01*
G01X43487Y49589D01*
G01X43533Y49543D01*
G01X43601Y49520D01*
G01X43645Y49520D01*
G01X43713Y49543D01*
G01X43759Y49589D01*
G01X43782Y49634D01*
G01X43782Y49700D01*
G01X43759Y49746D01*
G01X43713Y49792D01*
G01X43464Y49942D02*
G01X43782Y49942D01*
G01X43556Y49942D02*
G01X43487Y50010D01*
G01X43464Y50056D01*
G01X43464Y50125D01*
G01X43487Y50170D01*
G01X43556Y50193D01*
G01X43782Y50193D01*
G01X43304Y50615D02*
G01X43782Y50615D01*
G01X43533Y50615D02*
G01X43487Y50569D01*
G01X43464Y50523D01*
G01X43464Y50455D01*
G01X43487Y50412D01*
G01X43533Y50366D01*
G01X43601Y50343D01*
G01X43645Y50343D01*
G01X43713Y50366D01*
G01X43759Y50412D01*
G01X43782Y50455D01*
G01X43782Y50523D01*
G01X43759Y50569D01*
G01X43713Y50615D01*
G01X33759Y33015D02*
G01X33759Y32537D01*
G01X33759Y33015D02*
G01X33919Y33015D01*
G01X33987Y32992D01*
G01X34033Y32946D01*
G01X34056Y32900D01*
G01X34076Y32832D01*
G01X34076Y32717D01*
G01X34056Y32651D01*
G01X34033Y32606D01*
G01X33987Y32560D01*
G01X33919Y32537D01*
G01X33759Y32537D01*
G01X34546Y33015D02*
G01X34318Y32537D01*
G01X34229Y33015D02*
G01X34546Y33015D01*
G01X31264Y37028D02*
G01X31742Y37028D01*
G01X31742Y37028D02*
G01X31742Y37303D01*
G01X31264Y37453D02*
G01X31742Y37453D01*
G01X31264Y37453D02*
G01X31264Y37747D01*
G01X31493Y37453D02*
G01X31493Y37633D01*
G01X31742Y37453D02*
G01X31742Y37747D01*
G01X31264Y37897D02*
G01X31742Y37897D01*
G01X31264Y37897D02*
G01X31264Y38057D01*
G01X31287Y38126D01*
G01X31333Y38171D01*
G01X31378Y38194D01*
G01X31447Y38215D01*
G01X31561Y38215D01*
G01X31627Y38194D01*
G01X31673Y38171D01*
G01X31719Y38126D01*
G01X31742Y38057D01*
G01X31742Y37897D01*
G01X31264Y38639D02*
G01X31264Y38410D01*
G01X31470Y38387D01*
G01X31447Y38410D01*
G01X31424Y38479D01*
G01X31424Y38547D01*
G01X31447Y38616D01*
G01X31493Y38662D01*
G01X31561Y38685D01*
G01X31607Y38685D01*
G01X31673Y38662D01*
G01X31719Y38616D01*
G01X31742Y38547D01*
G01X31742Y38479D01*
G01X31719Y38410D01*
G01X31696Y38387D01*
G01X31650Y38367D01*
G01X34538Y36024D02*
G01X34538Y35661D01*
G01X34515Y35593D01*
G01X34492Y35570D01*
G01X34446Y35547D01*
G01X34400Y35547D01*
G01X34355Y35570D01*
G01X34332Y35593D01*
G01X34309Y35661D01*
G01X34309Y35707D01*
G01X34687Y36024D02*
G01X34687Y35547D01*
G01X34687Y36024D02*
G01X34891Y36024D01*
G01X34959Y36001D01*
G01X34982Y35979D01*
G01X35005Y35933D01*
G01X35005Y35887D01*
G01X34982Y35841D01*
G01X34959Y35819D01*
G01X34891Y35796D01*
G01X34687Y35796D01*
G01X34845Y35796D02*
G01X35005Y35547D01*
G01X35787Y32274D02*
G01X35787Y31911D01*
G01X35764Y31843D01*
G01X35741Y31820D01*
G01X35696Y31797D01*
G01X35650Y31797D01*
G01X35604Y31820D01*
G01X35581Y31843D01*
G01X35558Y31911D01*
G01X35558Y31957D01*
G01X35937Y32274D02*
G01X35937Y31797D01*
G01X35937Y32274D02*
G01X36140Y32274D01*
G01X36209Y32252D01*
G01X36232Y32229D01*
G01X36254Y32183D01*
G01X36254Y32137D01*
G01X36232Y32092D01*
G01X36209Y32069D01*
G01X36140Y32046D01*
G01X35937Y32046D01*
G01X36094Y32046D02*
G01X36254Y31797D01*
G01X36404Y32183D02*
G01X36450Y32206D01*
G01X36519Y32274D01*
G01X36519Y31797D01*
G01X37676Y29823D02*
G01X37676Y29460D01*
G01X37653Y29391D01*
G01X37632Y29371D01*
G01X37587Y29348D01*
G01X37541Y29348D01*
G01X37495Y29371D01*
G01X37472Y29391D01*
G01X37450Y29460D01*
G01X37450Y29505D01*
G01X37825Y29823D02*
G01X37825Y29348D01*
G01X37825Y29823D02*
G01X38031Y29823D01*
G01X38100Y29802D01*
G01X38123Y29780D01*
G01X38146Y29734D01*
G01X38146Y29688D01*
G01X38123Y29642D01*
G01X38100Y29620D01*
G01X38031Y29597D01*
G01X37825Y29597D01*
G01X37986Y29597D02*
G01X38146Y29348D01*
G01X38318Y29711D02*
G01X38318Y29734D01*
G01X38341Y29780D01*
G01X38364Y29802D01*
G01X38410Y29823D01*
G01X38499Y29823D01*
G01X38544Y29802D01*
G01X38567Y29780D01*
G01X38590Y29734D01*
G01X38590Y29688D01*
G01X38567Y29642D01*
G01X38521Y29574D01*
G01X38295Y29348D01*
G01X38613Y29348D01*
G01X31292Y35019D02*
G01X31770Y35019D01*
G01X31292Y35019D02*
G01X31292Y35224D01*
G01X31315Y35293D01*
G01X31338Y35316D01*
G01X31384Y35339D01*
G01X31429Y35339D01*
G01X31475Y35316D01*
G01X31498Y35293D01*
G01X31521Y35224D01*
G01X31521Y35019D01*
G01X31521Y35179D02*
G01X31770Y35339D01*
G01X31384Y35489D02*
G01X31361Y35534D01*
G01X31292Y35600D01*
G01X31770Y35600D01*
G01X32506Y32178D02*
G01X32480Y32234D01*
G01X32425Y32287D01*
G01X32371Y32315D01*
G01X32262Y32315D01*
G01X32206Y32287D01*
G01X32153Y32234D01*
G01X32125Y32178D01*
G01X32097Y32097D01*
G01X32097Y31959D01*
G01X32125Y31878D01*
G01X32153Y31825D01*
G01X32206Y31769D01*
G01X32262Y31741D01*
G01X32371Y31741D01*
G01X32425Y31769D01*
G01X32480Y31825D01*
G01X32506Y31878D01*
G01X32686Y32206D02*
G01X32742Y32234D01*
G01X32823Y32315D01*
G01X32823Y31741D01*
G01X37459Y48023D02*
G01X37459Y47546D01*
G01X37459Y48023D02*
G01X37619Y48023D01*
G01X37687Y48000D01*
G01X37733Y47955D01*
G01X37756Y47909D01*
G01X37779Y47843D01*
G01X37779Y47729D01*
G01X37756Y47660D01*
G01X37733Y47614D01*
G01X37687Y47569D01*
G01X37619Y47546D01*
G01X37459Y47546D01*
G01X37951Y47909D02*
G01X37951Y47932D01*
G01X37974Y47978D01*
G01X37995Y48000D01*
G01X38040Y48023D01*
G01X38132Y48023D01*
G01X38177Y48000D01*
G01X38200Y47978D01*
G01X38223Y47932D01*
G01X38223Y47889D01*
G01X38200Y47843D01*
G01X38155Y47774D01*
G01X37929Y47546D01*
G01X38246Y47546D01*
G01X40509Y47974D02*
G01X40509Y47496D01*
G01X40509Y47974D02*
G01X40669Y47974D01*
G01X40737Y47951D01*
G01X40783Y47905D01*
G01X40806Y47859D01*
G01X40829Y47793D01*
G01X40829Y47679D01*
G01X40806Y47610D01*
G01X40783Y47565D01*
G01X40737Y47519D01*
G01X40669Y47496D01*
G01X40509Y47496D01*
G01X40979Y47882D02*
G01X41022Y47905D01*
G01X41090Y47974D01*
G01X41090Y47496D01*
G01X47810Y43524D02*
G01X47810Y43047D01*
G01X47810Y43524D02*
G01X48013Y43524D01*
G01X48082Y43501D01*
G01X48104Y43478D01*
G01X48127Y43433D01*
G01X48127Y43387D01*
G01X48104Y43341D01*
G01X48082Y43318D01*
G01X48013Y43298D01*
G01X47810Y43298D01*
G01X47970Y43298D02*
G01X48127Y43047D01*
G01X48597Y43455D02*
G01X48551Y43501D01*
G01X48483Y43524D01*
G01X48391Y43524D01*
G01X48323Y43501D01*
G01X48277Y43455D01*
G01X48277Y43410D01*
G01X48300Y43364D01*
G01X48323Y43341D01*
G01X48369Y43318D01*
G01X48506Y43275D01*
G01X48551Y43252D01*
G01X48574Y43229D01*
G01X48597Y43184D01*
G01X48597Y43115D01*
G01X48551Y43069D01*
G01X48483Y43047D01*
G01X48391Y43047D01*
G01X48323Y43069D01*
G01X48277Y43115D01*
G01X48882Y43524D02*
G01X48813Y43501D01*
G01X48770Y43433D01*
G01X48747Y43318D01*
G01X48747Y43252D01*
G01X48770Y43138D01*
G01X48813Y43069D01*
G01X48882Y43047D01*
G01X48927Y43047D01*
G01X48996Y43069D01*
G01X49042Y43138D01*
G01X49065Y43252D01*
G01X49065Y43318D01*
G01X49042Y43433D01*
G01X48996Y43501D01*
G01X48927Y43524D01*
G01X48882Y43524D01*
G01X47811Y45023D02*
G01X47811Y44548D01*
G01X47811Y45023D02*
G01X48014Y45023D01*
G01X48082Y45000D01*
G01X48105Y44980D01*
G01X48128Y44934D01*
G01X48128Y44888D01*
G01X48105Y44843D01*
G01X48082Y44820D01*
G01X48014Y44797D01*
G01X47811Y44797D01*
G01X47968Y44797D02*
G01X48128Y44548D01*
G01X48596Y44957D02*
G01X48550Y45000D01*
G01X48481Y45023D01*
G01X48392Y45023D01*
G01X48324Y45000D01*
G01X48278Y44957D01*
G01X48278Y44911D01*
G01X48301Y44866D01*
G01X48324Y44843D01*
G01X48369Y44820D01*
G01X48504Y44774D01*
G01X48550Y44751D01*
G01X48573Y44728D01*
G01X48596Y44683D01*
G01X48596Y44614D01*
G01X48550Y44568D01*
G01X48481Y44548D01*
G01X48392Y44548D01*
G01X48324Y44568D01*
G01X48278Y44614D01*
G01X48745Y44934D02*
G01X48791Y44957D01*
G01X48860Y45023D01*
G01X48860Y44548D01*
G01X47809Y46524D02*
G01X47809Y46047D01*
G01X47809Y46524D02*
G01X48015Y46524D01*
G01X48084Y46501D01*
G01X48104Y46478D01*
G01X48127Y46433D01*
G01X48127Y46387D01*
G01X48104Y46341D01*
G01X48084Y46318D01*
G01X48015Y46296D01*
G01X47809Y46296D01*
G01X47969Y46296D02*
G01X48127Y46047D01*
G01X48597Y46456D02*
G01X48551Y46501D01*
G01X48482Y46524D01*
G01X48391Y46524D01*
G01X48322Y46501D01*
G01X48277Y46456D01*
G01X48277Y46410D01*
G01X48299Y46364D01*
G01X48322Y46341D01*
G01X48368Y46318D01*
G01X48505Y46275D01*
G01X48551Y46252D01*
G01X48574Y46230D01*
G01X48597Y46184D01*
G01X48597Y46115D01*
G01X48551Y46070D01*
G01X48482Y46047D01*
G01X48391Y46047D01*
G01X48322Y46070D01*
G01X48277Y46115D01*
G01X48769Y46410D02*
G01X48769Y46433D01*
G01X48792Y46478D01*
G01X48815Y46501D01*
G01X48861Y46524D01*
G01X48950Y46524D01*
G01X48995Y46501D01*
G01X49018Y46478D01*
G01X49041Y46433D01*
G01X49041Y46387D01*
G01X49018Y46341D01*
G01X48973Y46275D01*
G01X48746Y46047D01*
G01X49064Y46047D01*
G01X47810Y48024D02*
G01X47810Y47546D01*
G01X47810Y48024D02*
G01X48013Y48024D01*
G01X48082Y48001D01*
G01X48105Y47978D01*
G01X48128Y47932D01*
G01X48128Y47887D01*
G01X48105Y47843D01*
G01X48082Y47821D01*
G01X48013Y47798D01*
G01X47810Y47798D01*
G01X47968Y47798D02*
G01X48128Y47546D01*
G01X48595Y47955D02*
G01X48549Y48001D01*
G01X48483Y48024D01*
G01X48392Y48024D01*
G01X48323Y48001D01*
G01X48278Y47955D01*
G01X48278Y47910D01*
G01X48300Y47866D01*
G01X48323Y47843D01*
G01X48369Y47821D01*
G01X48506Y47775D01*
G01X48549Y47752D01*
G01X48572Y47729D01*
G01X48595Y47683D01*
G01X48595Y47615D01*
G01X48549Y47569D01*
G01X48483Y47546D01*
G01X48392Y47546D01*
G01X48323Y47569D01*
G01X48278Y47615D01*
G01X48791Y48024D02*
G01X49042Y48024D01*
G01X48905Y47843D01*
G01X48973Y47843D01*
G01X49019Y47821D01*
G01X49042Y47798D01*
G01X49065Y47729D01*
G01X49065Y47683D01*
G01X49042Y47615D01*
G01X48996Y47569D01*
G01X48928Y47546D01*
G01X48859Y47546D01*
G01X48791Y47569D01*
G01X48768Y47592D01*
G01X48745Y47638D01*
G01X39310Y35024D02*
G01X39310Y34546D01*
G01X39310Y35024D02*
G01X39514Y35024D01*
G01X39582Y35001D01*
G01X39605Y34978D01*
G01X39628Y34932D01*
G01X39628Y34889D01*
G01X39605Y34843D01*
G01X39582Y34821D01*
G01X39514Y34798D01*
G01X39310Y34798D01*
G01X39468Y34798D02*
G01X39628Y34546D01*
G01X39778Y35024D02*
G01X39778Y34546D01*
G01X39778Y35024D02*
G01X39981Y35024D01*
G01X40050Y35001D01*
G01X40072Y34978D01*
G01X40095Y34932D01*
G01X40095Y34866D01*
G01X40072Y34821D01*
G01X40050Y34798D01*
G01X39981Y34775D01*
G01X39778Y34775D01*
G01X40245Y35024D02*
G01X40245Y34683D01*
G01X40268Y34615D01*
G01X40314Y34569D01*
G01X40382Y34546D01*
G01X40428Y34546D01*
G01X40497Y34569D01*
G01X40542Y34615D01*
G01X40565Y34683D01*
G01X40565Y35024D01*
G01X39311Y36775D02*
G01X39311Y36297D01*
G01X39311Y36775D02*
G01X39514Y36775D01*
G01X39582Y36752D01*
G01X39605Y36729D01*
G01X39628Y36683D01*
G01X39628Y36637D01*
G01X39605Y36592D01*
G01X39582Y36569D01*
G01X39514Y36546D01*
G01X39311Y36546D01*
G01X39468Y36546D02*
G01X39628Y36297D01*
G01X39778Y36775D02*
G01X39778Y36297D01*
G01X39778Y36775D02*
G01X39981Y36775D01*
G01X40050Y36752D01*
G01X40073Y36729D01*
G01X40095Y36683D01*
G01X40095Y36615D01*
G01X40073Y36569D01*
G01X40050Y36546D01*
G01X39981Y36523D01*
G01X39778Y36523D01*
G01X40245Y36775D02*
G01X40245Y36434D01*
G01X40268Y36366D01*
G01X40314Y36320D01*
G01X40382Y36297D01*
G01X40428Y36297D01*
G01X40497Y36320D01*
G01X40542Y36366D01*
G01X40565Y36434D01*
G01X40565Y36775D01*
G01X40715Y36683D02*
G01X40761Y36706D01*
G01X40827Y36775D01*
G01X40827Y36297D01*
G01X36811Y47023D02*
G01X36811Y46546D01*
G01X36811Y47023D02*
G01X37014Y47023D01*
G01X37082Y47001D01*
G01X37105Y46978D01*
G01X37128Y46932D01*
G01X37128Y46889D01*
G01X37105Y46843D01*
G01X37082Y46820D01*
G01X37014Y46797D01*
G01X36811Y46797D01*
G01X36968Y46797D02*
G01X37128Y46546D01*
G01X37278Y47023D02*
G01X37278Y46546D01*
G01X37278Y47023D02*
G01X37481Y47023D01*
G01X37550Y47001D01*
G01X37573Y46978D01*
G01X37595Y46932D01*
G01X37595Y46866D01*
G01X37573Y46820D01*
G01X37550Y46797D01*
G01X37481Y46774D01*
G01X37278Y46774D01*
G01X37745Y47023D02*
G01X37745Y46683D01*
G01X37768Y46614D01*
G01X37814Y46569D01*
G01X37882Y46546D01*
G01X37928Y46546D01*
G01X37997Y46569D01*
G01X38042Y46614D01*
G01X38063Y46683D01*
G01X38063Y47023D01*
G01X38258Y47023D02*
G01X38510Y47023D01*
G01X38373Y46843D01*
G01X38441Y46843D01*
G01X38487Y46820D01*
G01X38510Y46797D01*
G01X38533Y46729D01*
G01X38533Y46683D01*
G01X38510Y46614D01*
G01X38464Y46569D01*
G01X38395Y46546D01*
G01X38327Y46546D01*
G01X38258Y46569D01*
G01X38235Y46592D01*
G01X38215Y46637D01*
G01X36811Y45774D02*
G01X36811Y45296D01*
G01X36811Y45774D02*
G01X37014Y45774D01*
G01X37082Y45751D01*
G01X37105Y45728D01*
G01X37128Y45685D01*
G01X37128Y45639D01*
G01X37105Y45593D01*
G01X37082Y45570D01*
G01X37014Y45548D01*
G01X36811Y45548D01*
G01X36968Y45548D02*
G01X37128Y45296D01*
G01X37278Y45774D02*
G01X37278Y45296D01*
G01X37278Y45774D02*
G01X37481Y45774D01*
G01X37550Y45751D01*
G01X37573Y45728D01*
G01X37595Y45685D01*
G01X37595Y45616D01*
G01X37573Y45570D01*
G01X37550Y45548D01*
G01X37481Y45525D01*
G01X37278Y45525D01*
G01X37745Y45774D02*
G01X37745Y45433D01*
G01X37768Y45365D01*
G01X37814Y45319D01*
G01X37882Y45296D01*
G01X37928Y45296D01*
G01X37997Y45319D01*
G01X38042Y45365D01*
G01X38063Y45433D01*
G01X38063Y45774D01*
G01X38235Y45662D02*
G01X38235Y45685D01*
G01X38258Y45728D01*
G01X38281Y45751D01*
G01X38327Y45774D01*
G01X38418Y45774D01*
G01X38464Y45751D01*
G01X38487Y45728D01*
G01X38510Y45685D01*
G01X38510Y45639D01*
G01X38487Y45593D01*
G01X38441Y45525D01*
G01X38215Y45296D01*
G01X38533Y45296D01*
G01X39059Y32103D02*
G01X39059Y31626D01*
G01X39059Y32103D02*
G01X39219Y32103D01*
G01X39285Y32081D01*
G01X39331Y32035D01*
G01X39354Y31992D01*
G01X39377Y31923D01*
G01X39377Y31809D01*
G01X39354Y31740D01*
G01X39331Y31694D01*
G01X39285Y31649D01*
G01X39219Y31626D01*
G01X39059Y31626D01*
G01X39801Y32035D02*
G01X39778Y32081D01*
G01X39709Y32103D01*
G01X39664Y32103D01*
G01X39595Y32081D01*
G01X39549Y32014D01*
G01X39527Y31900D01*
G01X39527Y31786D01*
G01X39549Y31694D01*
G01X39595Y31649D01*
G01X39664Y31626D01*
G01X39687Y31626D01*
G01X39755Y31649D01*
G01X39801Y31694D01*
G01X39824Y31763D01*
G01X39824Y31786D01*
G01X39801Y31854D01*
G01X39755Y31900D01*
G01X39687Y31923D01*
G01X39664Y31923D01*
G01X39595Y31900D01*
G01X39549Y31854D01*
G01X39527Y31786D01*
G01X39061Y30775D02*
G01X39061Y30297D01*
G01X39061Y30775D02*
G01X39218Y30775D01*
G01X39287Y30752D01*
G01X39332Y30706D01*
G01X39355Y30660D01*
G01X39378Y30592D01*
G01X39378Y30477D01*
G01X39355Y30411D01*
G01X39332Y30366D01*
G01X39287Y30320D01*
G01X39218Y30297D01*
G01X39061Y30297D01*
G01X39574Y30775D02*
G01X39823Y30775D01*
G01X39688Y30592D01*
G01X39754Y30592D01*
G01X39800Y30569D01*
G01X39823Y30546D01*
G01X39845Y30477D01*
G01X39845Y30434D01*
G01X39823Y30366D01*
G01X39777Y30320D01*
G01X39708Y30297D01*
G01X39642Y30297D01*
G01X39574Y30320D01*
G01X39551Y30343D01*
G01X39528Y30389D01*
G01X32709Y48725D02*
G01X32709Y48248D01*
G01X32709Y48725D02*
G01X32869Y48725D01*
G01X32935Y48702D01*
G01X32981Y48656D01*
G01X33004Y48611D01*
G01X33027Y48542D01*
G01X33027Y48428D01*
G01X33004Y48359D01*
G01X32981Y48316D01*
G01X32935Y48270D01*
G01X32869Y48248D01*
G01X32709Y48248D01*
G01X33405Y48725D02*
G01X33177Y48405D01*
G01X33520Y48405D01*
G01X33405Y48725D02*
G01X33405Y48248D01*
G01X32059Y41775D02*
G01X32059Y41298D01*
G01X32059Y41775D02*
G01X32219Y41775D01*
G01X32288Y41752D01*
G01X32333Y41706D01*
G01X32356Y41661D01*
G01X32377Y41592D01*
G01X32377Y41478D01*
G01X32356Y41409D01*
G01X32333Y41366D01*
G01X32288Y41320D01*
G01X32219Y41298D01*
G01X32059Y41298D01*
G01X32801Y41775D02*
G01X32572Y41775D01*
G01X32552Y41569D01*
G01X32572Y41592D01*
G01X32641Y41615D01*
G01X32709Y41615D01*
G01X32778Y41592D01*
G01X32824Y41546D01*
G01X32847Y41478D01*
G01X32847Y41432D01*
G01X32824Y41366D01*
G01X32778Y41320D01*
G01X32709Y41298D01*
G01X32641Y41298D01*
G01X32572Y41320D01*
G01X32552Y41343D01*
G01X32529Y41389D01*
G01X33161Y25864D02*
G01X33161Y25455D01*
G01X33186Y25374D01*
G01X33242Y25320D01*
G01X33323Y25292D01*
G01X33377Y25292D01*
G01X33460Y25320D01*
G01X33514Y25374D01*
G01X33542Y25455D01*
G01X33542Y25864D01*
G01X33722Y25755D02*
G01X33775Y25783D01*
G01X33857Y25864D01*
G01X33857Y25292D01*
G01X36058Y38430D02*
G01X36012Y38407D01*
G01X35967Y38362D01*
G01X35946Y38316D01*
G01X35946Y38227D01*
G01X35967Y38181D01*
G01X36012Y38136D01*
G01X36058Y38113D01*
G01X36127Y38090D01*
G01X36241Y38090D01*
G01X36310Y38113D01*
G01X36355Y38136D01*
G01X36398Y38181D01*
G01X36421Y38227D01*
G01X36421Y38316D01*
G01X36398Y38362D01*
G01X36355Y38407D01*
G01X36310Y38430D01*
G01X36012Y38854D02*
G01X35967Y38832D01*
G01X35946Y38763D01*
G01X35946Y38717D01*
G01X35967Y38649D01*
G01X36035Y38603D01*
G01X36150Y38580D01*
G01X36264Y38580D01*
G01X36355Y38603D01*
G01X36398Y38649D01*
G01X36421Y38717D01*
G01X36421Y38740D01*
G01X36398Y38809D01*
G01X36355Y38854D01*
G01X36287Y38875D01*
G01X36264Y38875D01*
G01X36195Y38854D01*
G01X36150Y38809D01*
G01X36127Y38740D01*
G01X36127Y38717D01*
G01X36150Y38649D01*
G01X36195Y38603D01*
G01X36264Y38580D01*
G01X33656Y39819D02*
G01X34133Y39819D01*
G01X33656Y39819D02*
G01X34133Y40002D01*
G01X33656Y40184D02*
G01X34133Y40002D01*
G01X33656Y40184D02*
G01X34133Y40184D01*
G01X33768Y40675D02*
G01X33722Y40652D01*
G01X33679Y40606D01*
G01X33656Y40560D01*
G01X33656Y40469D01*
G01X33679Y40423D01*
G01X33722Y40380D01*
G01X33768Y40357D01*
G01X33836Y40334D01*
G01X33951Y40334D01*
G01X34019Y40357D01*
G01X34065Y40380D01*
G01X34111Y40423D01*
G01X34133Y40469D01*
G01X34133Y40560D01*
G01X34111Y40606D01*
G01X34065Y40652D01*
G01X34019Y40675D01*
G01X33656Y40825D02*
G01X33996Y40825D01*
G01X34065Y40847D01*
G01X34111Y40893D01*
G01X34133Y40962D01*
G01X34133Y41005D01*
G01X34111Y41073D01*
G01X34065Y41119D01*
G01X33996Y41142D01*
G01X33656Y41142D01*
G54D10*
G75*
G01X31712Y26097D02*
G02X31712Y24827I0J-635D01*
G01*
G75*
G01X31674Y23303D02*
G03X31674Y23303I-190J0D01*
G01*
G54D33*
G75*
G01X34710Y40420D02*
G03X34710Y40420I-50J0D01*
G01*
M00*
M02*
