G04 Layer: TopLayer*
G04 EasyEDA v6.3.22, 2020-01-24T05:25:20+01:00*
G04 ad8136d40ef74d3abd72c227764213de,1e61c1b39cbf46459d8771e8f21e6a9c,10*
G04 Gerber Generator version 0.2*
G04 Scale: 100 percent, Rotated: No, Reflected: No *
G04 Dimensions in millimeters *
G04 leading zeros omitted , absolute positions ,3 integer and 3 decimal *
%FSLAX33Y33*%
%MOMM*%
G90*
G71D02*

%ADD11C,0.399999*%
%ADD12C,0.219989*%
%ADD13C,0.299999*%
%ADD14C,0.499999*%
%ADD15C,0.999998*%
%ADD16C,0.599999*%
%ADD17C,0.699999*%
%ADD18C,0.299974*%
%ADD19C,0.609600*%
%ADD20C,0.808025*%
%ADD21R,0.399999X0.699999*%
%ADD22R,0.999998X1.100074*%
%ADD23R,1.100074X0.999998*%
%ADD24R,0.750062X0.299974*%
%ADD25R,0.899922X0.999998*%
%ADD26R,0.219989X0.599999*%
%ADD27R,0.599999X0.219989*%
%ADD28C,1.599997*%
%ADD29C,0.807999*%

%LPD*%
G36*
G01X30893Y50537D02*
G01X29981Y50538D01*
G01X29967Y50537D01*
G01X29953Y50533D01*
G01X29939Y50528D01*
G01X29926Y50521D01*
G01X29914Y50513D01*
G01X29904Y50502D01*
G01X29896Y50491D01*
G01X29888Y50478D01*
G01X29883Y50464D01*
G01X29880Y50450D01*
G01X29879Y50436D01*
G01X29879Y27257D01*
G01X29880Y27242D01*
G01X29883Y27228D01*
G01X29888Y27215D01*
G01X29896Y27202D01*
G01X29904Y27190D01*
G01X29914Y27180D01*
G01X29926Y27172D01*
G01X29939Y27164D01*
G01X29953Y27159D01*
G01X29967Y27156D01*
G01X29981Y27155D01*
G01X29997Y27156D01*
G01X30012Y27160D01*
G01X30027Y27167D01*
G01X30041Y27175D01*
G01X30053Y27185D01*
G01X31437Y28569D01*
G01X31448Y28581D01*
G01X31456Y28595D01*
G01X31462Y28610D01*
G01X31465Y28625D01*
G01X31467Y28641D01*
G01X31467Y29259D01*
G01X31468Y29301D01*
G01X31471Y29341D01*
G01X31477Y29382D01*
G01X31485Y29422D01*
G01X31494Y29462D01*
G01X31506Y29501D01*
G01X31521Y29539D01*
G01X31537Y29576D01*
G01X31555Y29613D01*
G01X31575Y29649D01*
G01X31597Y29683D01*
G01X31621Y29716D01*
G01X31647Y29748D01*
G01X31674Y29778D01*
G01X31703Y29807D01*
G01X31734Y29835D01*
G01X31766Y29860D01*
G01X31799Y29884D01*
G01X31833Y29906D01*
G01X31869Y29925D01*
G01X31882Y29934D01*
G01X31894Y29944D01*
G01X31904Y29956D01*
G01X31912Y29970D01*
G01X31918Y29984D01*
G01X31922Y30000D01*
G01X31923Y30015D01*
G01X31922Y30030D01*
G01X31919Y30044D01*
G01X31914Y30058D01*
G01X31907Y30070D01*
G01X31898Y30082D01*
G01X31888Y30092D01*
G01X31876Y30101D01*
G01X31864Y30108D01*
G01X31850Y30113D01*
G01X31836Y30116D01*
G01X31821Y30117D01*
G01X31809Y30117D01*
G01X31781Y30118D01*
G01X31752Y30121D01*
G01X31724Y30126D01*
G01X31696Y30133D01*
G01X31669Y30142D01*
G01X31642Y30154D01*
G01X31617Y30166D01*
G01X31592Y30181D01*
G01X31568Y30197D01*
G01X31546Y30216D01*
G01X31525Y30235D01*
G01X31505Y30256D01*
G01X31487Y30279D01*
G01X31471Y30302D01*
G01X31456Y30327D01*
G01X31443Y30353D01*
G01X31432Y30379D01*
G01X31423Y30406D01*
G01X31416Y30434D01*
G01X31411Y30462D01*
G01X31408Y30491D01*
G01X31407Y30520D01*
G01X31407Y30706D01*
G01X32021Y30706D01*
G01X32021Y30108D01*
G01X32022Y30094D01*
G01X32025Y30080D01*
G01X32030Y30066D01*
G01X32037Y30053D01*
G01X32046Y30042D01*
G01X32056Y30032D01*
G01X32068Y30023D01*
G01X32081Y30016D01*
G01X32094Y30011D01*
G01X32108Y30008D01*
G01X32123Y30007D01*
G01X32134Y30007D01*
G01X32177Y30011D01*
G01X32219Y30012D01*
G01X32265Y30011D01*
G01X32311Y30007D01*
G01X32355Y30000D01*
G01X32400Y29990D01*
G01X32444Y29978D01*
G01X32459Y29975D01*
G01X32474Y29973D01*
G01X32488Y29974D01*
G01X32503Y29977D01*
G01X32516Y29982D01*
G01X32529Y29989D01*
G01X32541Y29998D01*
G01X32551Y30008D01*
G01X32560Y30019D01*
G01X32668Y30129D01*
G01X32678Y30140D01*
G01X32687Y30154D01*
G01X32693Y30169D01*
G01X32697Y30185D01*
G01X32698Y30200D01*
G01X32698Y30706D01*
G01X32982Y30706D01*
G01X32996Y30707D01*
G01X33011Y30711D01*
G01X33025Y30716D01*
G01X33039Y30724D01*
G01X33050Y30733D01*
G01X33060Y30744D01*
G01X33069Y30757D01*
G01X33076Y30770D01*
G01X33080Y30784D01*
G01X33083Y30799D01*
G01X33107Y31084D01*
G01X33107Y31232D01*
G01X33106Y31246D01*
G01X33103Y31260D01*
G01X33098Y31274D01*
G01X33091Y31286D01*
G01X33082Y31298D01*
G01X33072Y31308D01*
G01X33060Y31317D01*
G01X33047Y31324D01*
G01X33034Y31329D01*
G01X33020Y31332D01*
G01X33005Y31333D01*
G01X32698Y31333D01*
G01X32698Y32024D01*
G01X32697Y32038D01*
G01X32694Y32052D01*
G01X32689Y32066D01*
G01X32682Y32079D01*
G01X32673Y32091D01*
G01X32663Y32101D01*
G01X32652Y32109D01*
G01X32639Y32116D01*
G01X32625Y32122D01*
G01X32611Y32125D01*
G01X32597Y32126D01*
G01X32573Y32126D01*
G01X32573Y32220D01*
G01X32571Y32238D01*
G01X32567Y32255D01*
G01X32560Y32270D01*
G01X32546Y32297D01*
G01X32534Y32324D01*
G01X32525Y32352D01*
G01X32517Y32381D01*
G01X32511Y32411D01*
G01X32508Y32440D01*
G01X32507Y32470D01*
G01X32507Y33170D01*
G01X32509Y33208D01*
G01X32514Y33246D01*
G01X32516Y33266D01*
G01X32515Y33280D01*
G01X32512Y33294D01*
G01X32507Y33308D01*
G01X32500Y33320D01*
G01X32491Y33332D01*
G01X32481Y33342D01*
G01X32470Y33351D01*
G01X32457Y33358D01*
G01X32443Y33363D01*
G01X32429Y33366D01*
G01X32414Y33367D01*
G01X32348Y33367D01*
G01X32333Y33366D01*
G01X32319Y33363D01*
G01X32306Y33358D01*
G01X32293Y33351D01*
G01X32281Y33342D01*
G01X32271Y33332D01*
G01X32262Y33320D01*
G01X32255Y33308D01*
G01X32250Y33294D01*
G01X32247Y33280D01*
G01X32246Y33266D01*
G01X32246Y33058D01*
G01X31807Y33058D01*
G01X31807Y33170D01*
G01X31808Y33203D01*
G01X31812Y33236D01*
G01X31819Y33269D01*
G01X31829Y33301D01*
G01X31841Y33332D01*
G01X31847Y33352D01*
G01X31850Y33373D01*
G01X31848Y33388D01*
G01X31845Y33403D01*
G01X31840Y33417D01*
G01X31832Y33431D01*
G01X31822Y33443D01*
G01X31811Y33453D01*
G01X31788Y33473D01*
G01X31766Y33494D01*
G01X31746Y33517D01*
G01X31728Y33541D01*
G01X31712Y33567D01*
G01X31697Y33594D01*
G01X31685Y33621D01*
G01X31675Y33650D01*
G01X31667Y33679D01*
G01X31661Y33709D01*
G01X31658Y33740D01*
G01X31657Y33769D01*
G01X31657Y34870D01*
G01X31658Y34902D01*
G01X31662Y34933D01*
G01X31669Y34965D01*
G01X31677Y34996D01*
G01X31688Y35026D01*
G01X31702Y35055D01*
G01X31718Y35083D01*
G01X31736Y35109D01*
G01X31745Y35123D01*
G01X31751Y35138D01*
G01X31754Y35154D01*
G01X31756Y35170D01*
G01X31754Y35186D01*
G01X31751Y35202D01*
G01X31745Y35216D01*
G01X31736Y35230D01*
G01X31718Y35256D01*
G01X31702Y35284D01*
G01X31688Y35313D01*
G01X31677Y35344D01*
G01X31669Y35374D01*
G01X31662Y35406D01*
G01X31658Y35438D01*
G01X31657Y35470D01*
G01X31657Y36570D01*
G01X31658Y36606D01*
G01X31663Y36642D01*
G01X31672Y36678D01*
G01X31676Y36705D01*
G01X31675Y36712D01*
G01X31674Y36738D01*
G01X31674Y37601D01*
G01X31676Y37632D01*
G01X31679Y37662D01*
G01X31684Y37692D01*
G01X31692Y37721D01*
G01X31703Y37750D01*
G01X31715Y37777D01*
G01X31729Y37804D01*
G01X31745Y37829D01*
G01X31763Y37854D01*
G01X31783Y37877D01*
G01X31804Y37898D01*
G01X31828Y37918D01*
G01X31852Y37936D01*
G01X31865Y37946D01*
G01X31876Y37958D01*
G01X31885Y37972D01*
G01X31892Y37987D01*
G01X31896Y38003D01*
G01X31897Y38019D01*
G01X31896Y38036D01*
G01X31892Y38052D01*
G01X31885Y38067D01*
G01X31876Y38081D01*
G01X31865Y38094D01*
G01X31852Y38104D01*
G01X31828Y38122D01*
G01X31804Y38141D01*
G01X31783Y38163D01*
G01X31763Y38186D01*
G01X31745Y38210D01*
G01X31729Y38235D01*
G01X31715Y38262D01*
G01X31703Y38290D01*
G01X31692Y38319D01*
G01X31684Y38348D01*
G01X31679Y38378D01*
G01X31676Y38408D01*
G01X31674Y38438D01*
G01X31674Y38590D01*
G01X32255Y38590D01*
G01X32255Y38106D01*
G01X32256Y38092D01*
G01X32259Y38077D01*
G01X32264Y38064D01*
G01X32271Y38051D01*
G01X32280Y38039D01*
G01X32290Y38029D01*
G01X32301Y38020D01*
G01X32314Y38013D01*
G01X32328Y38008D01*
G01X32342Y38005D01*
G01X32356Y38004D01*
G01X32763Y38004D01*
G01X32777Y38005D01*
G01X32791Y38008D01*
G01X32805Y38013D01*
G01X32818Y38020D01*
G01X32829Y38029D01*
G01X32839Y38039D01*
G01X32848Y38051D01*
G01X32855Y38064D01*
G01X32860Y38077D01*
G01X32863Y38092D01*
G01X32864Y38106D01*
G01X32864Y38590D01*
G01X33305Y38590D01*
G01X33320Y38591D01*
G01X33334Y38594D01*
G01X33347Y38600D01*
G01X33361Y38606D01*
G01X33372Y38615D01*
G01X33383Y38625D01*
G01X33391Y38637D01*
G01X33398Y38649D01*
G01X33403Y38663D01*
G01X33406Y38677D01*
G01X33407Y38691D01*
G01X33407Y39005D01*
G01X33406Y39021D01*
G01X33402Y39036D01*
G01X33396Y39051D01*
G01X33388Y39065D01*
G01X33377Y39077D01*
G01X33335Y39119D01*
G01X33323Y39129D01*
G01X33309Y39138D01*
G01X33295Y39144D01*
G01X33279Y39148D01*
G01X33263Y39149D01*
G01X32864Y39149D01*
G01X32864Y39548D01*
G01X32863Y39564D01*
G01X32859Y39579D01*
G01X32853Y39594D01*
G01X32845Y39607D01*
G01X32834Y39620D01*
G01X32577Y39877D01*
G01X31597Y40858D01*
G01X31571Y40884D01*
G01X31548Y40912D01*
G01X31526Y40941D01*
G01X31505Y40972D01*
G01X31487Y41003D01*
G01X31470Y41036D01*
G01X31455Y41069D01*
G01X31442Y41103D01*
G01X31431Y41138D01*
G01X31422Y41174D01*
G01X31415Y41210D01*
G01X31409Y41246D01*
G01X31406Y41282D01*
G01X31405Y41319D01*
G01X31407Y41357D01*
G01X31407Y44961D01*
G01X31405Y44980D01*
G01X31400Y44998D01*
G01X31386Y45039D01*
G01X31373Y45081D01*
G01X31364Y45123D01*
G01X31358Y45166D01*
G01X31354Y45210D01*
G01X31352Y45253D01*
G01X31354Y45297D01*
G01X31358Y45341D01*
G01X31364Y45384D01*
G01X31373Y45427D01*
G01X31386Y45468D01*
G01X31400Y45509D01*
G01X31405Y45528D01*
G01X31407Y45546D01*
G01X31407Y46477D01*
G01X31405Y46496D01*
G01X31400Y46514D01*
G01X31386Y46555D01*
G01X31373Y46597D01*
G01X31364Y46640D01*
G01X31358Y46683D01*
G01X31354Y46726D01*
G01X31352Y46770D01*
G01X31354Y46813D01*
G01X31358Y46857D01*
G01X31364Y46900D01*
G01X31373Y46942D01*
G01X31386Y46985D01*
G01X31400Y47026D01*
G01X31405Y47044D01*
G01X31407Y47062D01*
G01X31407Y49955D01*
G01X31405Y49972D01*
G01X31402Y49987D01*
G01X31396Y50002D01*
G01X31387Y50016D01*
G01X31376Y50028D01*
G01X31364Y50039D01*
G01X31321Y50070D01*
G01X31279Y50104D01*
G01X31240Y50140D01*
G01X31201Y50177D01*
G01X31165Y50216D01*
G01X31130Y50257D01*
G01X31097Y50299D01*
G01X31066Y50342D01*
G01X31037Y50387D01*
G01X31009Y50433D01*
G01X30984Y50481D01*
G01X30976Y50494D01*
G01X30965Y50507D01*
G01X30953Y50517D01*
G01X30940Y50525D01*
G01X30925Y50532D01*
G01X30910Y50536D01*
G01X30893Y50537D01*
G37*

%LPC*%
G36*
G01X32021Y31333D02*
G01X32021Y31934D01*
G01X32006Y31927D01*
G01X31990Y31923D01*
G01X31974Y31922D01*
G01X31809Y31922D01*
G01X31781Y31921D01*
G01X31752Y31918D01*
G01X31724Y31913D01*
G01X31696Y31906D01*
G01X31669Y31897D01*
G01X31642Y31886D01*
G01X31617Y31873D01*
G01X31592Y31858D01*
G01X31568Y31842D01*
G01X31546Y31824D01*
G01X31525Y31805D01*
G01X31505Y31783D01*
G01X31487Y31761D01*
G01X31471Y31737D01*
G01X31456Y31713D01*
G01X31443Y31687D01*
G01X31432Y31660D01*
G01X31423Y31633D01*
G01X31416Y31605D01*
G01X31411Y31577D01*
G01X31408Y31549D01*
G01X31407Y31520D01*
G01X31407Y31333D01*
G01X32021Y31333D01*
G37*
G36*
G01X32246Y32581D02*
G01X31807Y32581D01*
G01X31807Y32470D01*
G01X31808Y32441D01*
G01X31811Y32412D01*
G01X31816Y32383D01*
G01X31823Y32355D01*
G01X31833Y32327D01*
G01X31844Y32300D01*
G01X31858Y32274D01*
G01X31872Y32250D01*
G01X31890Y32226D01*
G01X31908Y32203D01*
G01X31928Y32182D01*
G01X31949Y32163D01*
G01X31972Y32144D01*
G01X31996Y32128D01*
G01X32022Y32114D01*
G01X32036Y32105D01*
G01X32049Y32093D01*
G01X32061Y32104D01*
G01X32074Y32113D01*
G01X32090Y32120D01*
G01X32106Y32124D01*
G01X32123Y32126D01*
G01X32246Y32126D01*
G01X32246Y32581D01*
G37*
G36*
G01X32255Y39704D02*
G01X32077Y39704D01*
G01X32048Y39703D01*
G01X32020Y39700D01*
G01X31991Y39695D01*
G01X31964Y39688D01*
G01X31936Y39679D01*
G01X31884Y39655D01*
G01X31859Y39640D01*
G01X31836Y39624D01*
G01X31813Y39605D01*
G01X31792Y39586D01*
G01X31773Y39565D01*
G01X31754Y39542D01*
G01X31738Y39519D01*
G01X31723Y39494D01*
G01X31711Y39469D01*
G01X31700Y39442D01*
G01X31691Y39415D01*
G01X31684Y39387D01*
G01X31678Y39359D01*
G01X31675Y39330D01*
G01X31674Y39301D01*
G01X31674Y39149D01*
G01X32255Y39149D01*
G01X32255Y39704D01*
G37*

%LPD*%
G36*
G01X43648Y50527D02*
G01X42721Y50528D01*
G01X42705Y50527D01*
G01X42690Y50523D01*
G01X42675Y50517D01*
G01X42661Y50509D01*
G01X42649Y50498D01*
G01X42639Y50486D01*
G01X42631Y50473D01*
G01X42606Y50427D01*
G01X42579Y50382D01*
G01X42550Y50338D01*
G01X42520Y50296D01*
G01X42487Y50255D01*
G01X42453Y50215D01*
G01X42418Y50177D01*
G01X42381Y50141D01*
G01X42342Y50106D01*
G01X42301Y50073D01*
G01X42259Y50042D01*
G01X42216Y50012D01*
G01X42172Y49985D01*
G01X42127Y49959D01*
G01X42114Y49951D01*
G01X42102Y49940D01*
G01X42092Y49928D01*
G01X42084Y49915D01*
G01X42077Y49901D01*
G01X42074Y49885D01*
G01X42073Y49870D01*
G01X42073Y46477D01*
G01X42074Y46462D01*
G01X42077Y46449D01*
G01X42082Y46435D01*
G01X42089Y46422D01*
G01X42098Y46411D01*
G01X42108Y46400D01*
G01X42120Y46392D01*
G01X42132Y46385D01*
G01X42146Y46380D01*
G01X42160Y46377D01*
G01X42174Y46376D01*
G01X42190Y46377D01*
G01X42206Y46381D01*
G01X42221Y46387D01*
G01X42234Y46395D01*
G01X42246Y46405D01*
G01X43598Y47757D01*
G01X43623Y47780D01*
G01X43649Y47801D01*
G01X43676Y47821D01*
G01X43704Y47839D01*
G01X43734Y47854D01*
G01X43765Y47868D01*
G01X43796Y47880D01*
G01X43828Y47890D01*
G01X43861Y47897D01*
G01X43894Y47903D01*
G01X43927Y47906D01*
G01X43961Y47907D01*
G01X44155Y47907D01*
G01X44169Y47908D01*
G01X44184Y47911D01*
G01X44197Y47916D01*
G01X44210Y47923D01*
G01X44222Y47932D01*
G01X44232Y47942D01*
G01X44241Y47954D01*
G01X44248Y47967D01*
G01X44253Y47980D01*
G01X44256Y47995D01*
G01X44257Y48009D01*
G01X44257Y48294D01*
G01X44258Y48323D01*
G01X44261Y48352D01*
G01X44266Y48380D01*
G01X44273Y48408D01*
G01X44282Y48435D01*
G01X44293Y48462D01*
G01X44306Y48487D01*
G01X44321Y48512D01*
G01X44337Y48536D01*
G01X44355Y48558D01*
G01X44375Y48579D01*
G01X44396Y48599D01*
G01X44418Y48617D01*
G01X44442Y48633D01*
G01X44467Y48648D01*
G01X44492Y48660D01*
G01X44519Y48672D01*
G01X44546Y48681D01*
G01X44574Y48688D01*
G01X44602Y48693D01*
G01X44631Y48696D01*
G01X44660Y48697D01*
G01X45377Y48697D01*
G01X45393Y48698D01*
G01X45408Y48702D01*
G01X45423Y48708D01*
G01X45437Y48716D01*
G01X45449Y48727D01*
G01X45459Y48739D01*
G01X45467Y48752D01*
G01X45489Y48793D01*
G01X45513Y48832D01*
G01X45538Y48870D01*
G01X45565Y48907D01*
G01X45594Y48942D01*
G01X45625Y48976D01*
G01X45657Y49009D01*
G01X45690Y49041D01*
G01X45725Y49070D01*
G01X45761Y49099D01*
G01X45798Y49125D01*
G01X45837Y49150D01*
G01X45876Y49173D01*
G01X45917Y49194D01*
G01X45959Y49213D01*
G01X46001Y49230D01*
G01X46044Y49246D01*
G01X46088Y49259D01*
G01X46132Y49271D01*
G01X46177Y49280D01*
G01X46222Y49287D01*
G01X46268Y49293D01*
G01X46314Y49296D01*
G01X46359Y49297D01*
G01X47460Y49297D01*
G01X47506Y49296D01*
G01X47552Y49292D01*
G01X47598Y49287D01*
G01X47645Y49280D01*
G01X47690Y49270D01*
G01X47735Y49258D01*
G01X47780Y49245D01*
G01X47866Y49211D01*
G01X47908Y49191D01*
G01X47949Y49169D01*
G01X47990Y49145D01*
G01X48028Y49120D01*
G01X48066Y49093D01*
G01X48102Y49063D01*
G01X48137Y49033D01*
G01X48171Y49001D01*
G01X48203Y48967D01*
G01X48233Y48932D01*
G01X48262Y48895D01*
G01X48289Y48857D01*
G01X48314Y48818D01*
G01X48338Y48778D01*
G01X48359Y48737D01*
G01X48379Y48694D01*
G01X48396Y48651D01*
G01X48412Y48607D01*
G01X48425Y48563D01*
G01X48437Y48518D01*
G01X48446Y48472D01*
G01X48453Y48426D01*
G01X48456Y48411D01*
G01X48462Y48397D01*
G01X48469Y48384D01*
G01X48479Y48371D01*
G01X48490Y48361D01*
G01X48502Y48352D01*
G01X48550Y48322D01*
G01X48596Y48290D01*
G01X48640Y48256D01*
G01X48682Y48220D01*
G01X48723Y48181D01*
G01X48992Y47912D01*
G01X49004Y47902D01*
G01X49017Y47893D01*
G01X49032Y47887D01*
G01X49048Y47883D01*
G01X49063Y47882D01*
G01X68060Y47882D01*
G01X68109Y47881D01*
G01X68157Y47878D01*
G01X68205Y47873D01*
G01X68253Y47865D01*
G01X68301Y47856D01*
G01X68348Y47844D01*
G01X68395Y47831D01*
G01X68441Y47815D01*
G01X68486Y47797D01*
G01X68531Y47778D01*
G01X68574Y47757D01*
G01X68616Y47733D01*
G01X68658Y47708D01*
G01X68698Y47681D01*
G01X68737Y47652D01*
G01X68775Y47622D01*
G01X68812Y47590D01*
G01X68847Y47557D01*
G01X72740Y43663D01*
G01X72752Y43653D01*
G01X72766Y43644D01*
G01X72780Y43638D01*
G01X72796Y43635D01*
G01X72812Y43633D01*
G01X72827Y43635D01*
G01X72841Y43638D01*
G01X72855Y43643D01*
G01X72868Y43651D01*
G01X72880Y43659D01*
G01X72890Y43670D01*
G01X72898Y43682D01*
G01X72905Y43695D01*
G01X72910Y43710D01*
G01X72931Y43787D01*
G01X72955Y43864D01*
G01X72980Y43941D01*
G01X73008Y44017D01*
G01X73037Y44092D01*
G01X73068Y44166D01*
G01X73102Y44240D01*
G01X73136Y44313D01*
G01X73173Y44384D01*
G01X73212Y44455D01*
G01X73252Y44525D01*
G01X73338Y44661D01*
G01X73384Y44728D01*
G01X73431Y44793D01*
G01X73480Y44857D01*
G01X73531Y44920D01*
G01X73583Y44981D01*
G01X73637Y45041D01*
G01X73692Y45100D01*
G01X73749Y45157D01*
G01X73807Y45213D01*
G01X73867Y45268D01*
G01X73928Y45320D01*
G01X73990Y45371D01*
G01X74054Y45421D01*
G01X74119Y45469D01*
G01X74185Y45515D01*
G01X74252Y45560D01*
G01X74320Y45602D01*
G01X74390Y45643D01*
G01X74460Y45683D01*
G01X74532Y45720D01*
G01X74604Y45756D01*
G01X74677Y45789D01*
G01X74751Y45821D01*
G01X74826Y45851D01*
G01X74902Y45879D01*
G01X74978Y45906D01*
G01X75132Y45952D01*
G01X75211Y45972D01*
G01X75289Y45990D01*
G01X75368Y46006D01*
G01X75447Y46020D01*
G01X75527Y46032D01*
G01X75607Y46042D01*
G01X75688Y46050D01*
G01X75768Y46056D01*
G01X75779Y46057D01*
G01X75836Y46066D01*
G01X75892Y46070D01*
G01X75949Y46072D01*
G01X81710Y46072D01*
G01X81762Y46071D01*
G01X81767Y46070D01*
G01X81765Y46071D01*
G01X81846Y46067D01*
G01X81926Y46062D01*
G01X82007Y46054D01*
G01X82088Y46044D01*
G01X82167Y46032D01*
G01X82247Y46018D01*
G01X82327Y46003D01*
G01X82406Y45985D01*
G01X82484Y45965D01*
G01X82562Y45943D01*
G01X82639Y45919D01*
G01X82716Y45893D01*
G01X82792Y45865D01*
G01X82867Y45836D01*
G01X82941Y45804D01*
G01X83015Y45770D01*
G01X83088Y45735D01*
G01X83160Y45697D01*
G01X83231Y45658D01*
G01X83301Y45617D01*
G01X83369Y45574D01*
G01X83437Y45530D01*
G01X83503Y45483D01*
G01X83568Y45436D01*
G01X83632Y45386D01*
G01X83695Y45335D01*
G01X83756Y45282D01*
G01X83816Y45228D01*
G01X83875Y45172D01*
G01X83932Y45115D01*
G01X83987Y45056D01*
G01X84042Y44996D01*
G01X84094Y44934D01*
G01X84145Y44871D01*
G01X84194Y44807D01*
G01X84242Y44741D01*
G01X84288Y44675D01*
G01X84332Y44607D01*
G01X84375Y44538D01*
G01X84415Y44468D01*
G01X84454Y44397D01*
G01X84491Y44325D01*
G01X84526Y44252D01*
G01X84559Y44178D01*
G01X84591Y44104D01*
G01X84620Y44029D01*
G01X84648Y43952D01*
G01X84673Y43876D01*
G01X84697Y43798D01*
G01X84718Y43720D01*
G01X84738Y43641D01*
G01X84756Y43562D01*
G01X84771Y43483D01*
G01X84784Y43403D01*
G01X84796Y43323D01*
G01X84805Y43243D01*
G01X84812Y43162D01*
G01X84818Y43081D01*
G01X84821Y43000D01*
G01X84822Y42920D01*
G01X84822Y39181D01*
G01X84820Y39100D01*
G01X84815Y39019D01*
G01X84809Y38939D01*
G01X84801Y38858D01*
G01X84791Y38778D01*
G01X84778Y38698D01*
G01X84764Y38619D01*
G01X84748Y38540D01*
G01X84729Y38461D01*
G01X84709Y38383D01*
G01X84686Y38305D01*
G01X84662Y38228D01*
G01X84636Y38151D01*
G01X84607Y38076D01*
G01X84577Y38001D01*
G01X84545Y37927D01*
G01X84511Y37853D01*
G01X84475Y37781D01*
G01X84437Y37710D01*
G01X84397Y37639D01*
G01X84356Y37570D01*
G01X84313Y37501D01*
G01X84268Y37434D01*
G01X84221Y37368D01*
G01X84173Y37303D01*
G01X84123Y37240D01*
G01X84071Y37178D01*
G01X84018Y37117D01*
G01X83964Y37057D01*
G01X83907Y36999D01*
G01X83850Y36942D01*
G01X83790Y36887D01*
G01X83730Y36834D01*
G01X83668Y36781D01*
G01X83605Y36731D01*
G01X83540Y36682D01*
G01X83475Y36635D01*
G01X83408Y36590D01*
G01X83340Y36546D01*
G01X83271Y36504D01*
G01X83201Y36464D01*
G01X83129Y36425D01*
G01X83057Y36389D01*
G01X82985Y36354D01*
G01X82910Y36322D01*
G01X82836Y36291D01*
G01X82822Y36284D01*
G01X82810Y36275D01*
G01X82799Y36265D01*
G01X82790Y36253D01*
G01X82782Y36240D01*
G01X82776Y36226D01*
G01X82773Y36211D01*
G01X82772Y36196D01*
G01X82773Y36181D01*
G01X82776Y36167D01*
G01X82781Y36153D01*
G01X82789Y36140D01*
G01X82798Y36128D01*
G01X82809Y36118D01*
G01X82821Y36109D01*
G01X82835Y36102D01*
G01X82909Y36071D01*
G01X82982Y36037D01*
G01X83055Y36001D01*
G01X83126Y35964D01*
G01X83197Y35924D01*
G01X83267Y35883D01*
G01X83335Y35841D01*
G01X83402Y35796D01*
G01X83468Y35750D01*
G01X83533Y35702D01*
G01X83597Y35652D01*
G01X83660Y35601D01*
G01X83721Y35549D01*
G01X83781Y35494D01*
G01X83839Y35438D01*
G01X83895Y35381D01*
G01X83951Y35322D01*
G01X84005Y35262D01*
G01X84057Y35200D01*
G01X84108Y35138D01*
G01X84157Y35073D01*
G01X84204Y35008D01*
G01X84250Y34941D01*
G01X84294Y34873D01*
G01X84336Y34805D01*
G01X84377Y34735D01*
G01X84416Y34664D01*
G01X84452Y34592D01*
G01X84487Y34519D01*
G01X84521Y34446D01*
G01X84552Y34371D01*
G01X84581Y34296D01*
G01X84609Y34220D01*
G01X84634Y34143D01*
G01X84657Y34066D01*
G01X84679Y33988D01*
G01X84698Y33910D01*
G01X84716Y33831D01*
G01X84731Y33752D01*
G01X84745Y33672D01*
G01X84756Y33592D01*
G01X84765Y33512D01*
G01X84772Y33432D01*
G01X84778Y33351D01*
G01X84781Y33270D01*
G01X84782Y33189D01*
G01X84782Y29469D01*
G01X84781Y29439D01*
G01X84781Y29438D01*
G01X84779Y29358D01*
G01X84775Y29278D01*
G01X84768Y29197D01*
G01X84760Y29118D01*
G01X84749Y29038D01*
G01X84737Y28959D01*
G01X84723Y28880D01*
G01X84706Y28802D01*
G01X84687Y28724D01*
G01X84667Y28646D01*
G01X84644Y28569D01*
G01X84620Y28492D01*
G01X84566Y28342D01*
G01X84535Y28267D01*
G01X84503Y28194D01*
G01X84470Y28121D01*
G01X84433Y28049D01*
G01X84396Y27978D01*
G01X84357Y27908D01*
G01X84316Y27840D01*
G01X84273Y27772D01*
G01X84228Y27705D01*
G01X84182Y27639D01*
G01X84134Y27575D01*
G01X84084Y27512D01*
G01X84033Y27450D01*
G01X83981Y27390D01*
G01X83926Y27331D01*
G01X83871Y27273D01*
G01X83814Y27216D01*
G01X83755Y27161D01*
G01X83695Y27108D01*
G01X83634Y27056D01*
G01X83571Y27006D01*
G01X83507Y26958D01*
G01X83442Y26910D01*
G01X83376Y26865D01*
G01X83309Y26822D01*
G01X83240Y26780D01*
G01X83171Y26740D01*
G01X83100Y26701D01*
G01X83029Y26665D01*
G01X82957Y26630D01*
G01X82884Y26597D01*
G01X82809Y26566D01*
G01X82735Y26537D01*
G01X82659Y26510D01*
G01X82583Y26485D01*
G01X82506Y26461D01*
G01X82429Y26440D01*
G01X82351Y26421D01*
G01X82336Y26416D01*
G01X82323Y26410D01*
G01X82311Y26401D01*
G01X82299Y26391D01*
G01X82290Y26379D01*
G01X82283Y26365D01*
G01X82277Y26352D01*
G01X82274Y26337D01*
G01X82273Y26322D01*
G01X82274Y26306D01*
G01X82277Y26292D01*
G01X82283Y26278D01*
G01X82290Y26264D01*
G01X82300Y26253D01*
G01X82311Y26242D01*
G01X82324Y26234D01*
G01X82337Y26227D01*
G01X82352Y26223D01*
G01X82429Y26204D01*
G01X82507Y26183D01*
G01X82584Y26160D01*
G01X82660Y26136D01*
G01X82735Y26109D01*
G01X82810Y26080D01*
G01X82884Y26050D01*
G01X82957Y26018D01*
G01X83030Y25983D01*
G01X83101Y25948D01*
G01X83172Y25910D01*
G01X83242Y25870D01*
G01X83310Y25829D01*
G01X83378Y25786D01*
G01X83444Y25741D01*
G01X83509Y25695D01*
G01X83573Y25647D01*
G01X83636Y25597D01*
G01X83698Y25546D01*
G01X83758Y25493D01*
G01X83817Y25439D01*
G01X83874Y25383D01*
G01X83930Y25326D01*
G01X83985Y25267D01*
G01X84038Y25207D01*
G01X84089Y25146D01*
G01X84139Y25083D01*
G01X84188Y25019D01*
G01X84234Y24954D01*
G01X84279Y24888D01*
G01X84322Y24821D01*
G01X84364Y24752D01*
G01X84404Y24683D01*
G01X84442Y24612D01*
G01X84478Y24541D01*
G01X84513Y24469D01*
G01X84545Y24395D01*
G01X84576Y24322D01*
G01X84605Y24247D01*
G01X84632Y24171D01*
G01X84656Y24096D01*
G01X84680Y24019D01*
G01X84701Y23942D01*
G01X84720Y23864D01*
G01X84737Y23786D01*
G01X84752Y23707D01*
G01X84765Y23628D01*
G01X84776Y23549D01*
G01X84786Y23469D01*
G01X84793Y23390D01*
G01X84798Y23309D01*
G01X84801Y23230D01*
G01X84802Y23149D01*
G01X84802Y19404D01*
G01X84799Y19324D01*
G01X84795Y19244D01*
G01X84789Y19163D01*
G01X84780Y19083D01*
G01X84770Y19003D01*
G01X84758Y18924D01*
G01X84743Y18844D01*
G01X84727Y18766D01*
G01X84708Y18687D01*
G01X84688Y18609D01*
G01X84666Y18532D01*
G01X84641Y18455D01*
G01X84615Y18379D01*
G01X84586Y18303D01*
G01X84556Y18229D01*
G01X84524Y18155D01*
G01X84490Y18082D01*
G01X84454Y18010D01*
G01X84416Y17939D01*
G01X84377Y17869D01*
G01X84335Y17799D01*
G01X84292Y17731D01*
G01X84248Y17664D01*
G01X84201Y17598D01*
G01X84153Y17534D01*
G01X84103Y17470D01*
G01X84052Y17408D01*
G01X83999Y17348D01*
G01X83945Y17288D01*
G01X83831Y17174D01*
G01X83773Y17119D01*
G01X83712Y17065D01*
G01X83651Y17014D01*
G01X83588Y16963D01*
G01X83524Y16915D01*
G01X83458Y16867D01*
G01X83392Y16822D01*
G01X83324Y16778D01*
G01X83255Y16736D01*
G01X83185Y16696D01*
G01X83114Y16658D01*
G01X83043Y16621D01*
G01X82970Y16587D01*
G01X82896Y16554D01*
G01X82822Y16523D01*
G01X82747Y16494D01*
G01X82671Y16467D01*
G01X82595Y16442D01*
G01X82517Y16419D01*
G01X82440Y16397D01*
G01X82425Y16393D01*
G01X82412Y16386D01*
G01X82400Y16377D01*
G01X82389Y16367D01*
G01X82380Y16355D01*
G01X82373Y16343D01*
G01X82367Y16328D01*
G01X82364Y16314D01*
G01X82363Y16299D01*
G01X82364Y16285D01*
G01X82367Y16270D01*
G01X82373Y16256D01*
G01X82380Y16243D01*
G01X82389Y16232D01*
G01X82399Y16222D01*
G01X82411Y16213D01*
G01X82424Y16206D01*
G01X82438Y16201D01*
G01X82516Y16179D01*
G01X82592Y16155D01*
G01X82669Y16129D01*
G01X82744Y16101D01*
G01X82820Y16070D01*
G01X82894Y16039D01*
G01X82967Y16005D01*
G01X83039Y15969D01*
G01X83111Y15932D01*
G01X83181Y15892D01*
G01X83250Y15851D01*
G01X83318Y15809D01*
G01X83386Y15764D01*
G01X83452Y15718D01*
G01X83517Y15669D01*
G01X83580Y15620D01*
G01X83643Y15569D01*
G01X83703Y15516D01*
G01X83763Y15462D01*
G01X83821Y15406D01*
G01X83878Y15348D01*
G01X83933Y15289D01*
G01X83987Y15230D01*
G01X84039Y15168D01*
G01X84090Y15105D01*
G01X84139Y15041D01*
G01X84186Y14976D01*
G01X84232Y14909D01*
G01X84318Y14773D01*
G01X84358Y14703D01*
G01X84397Y14632D01*
G01X84469Y14488D01*
G01X84502Y14414D01*
G01X84533Y14340D01*
G01X84562Y14265D01*
G01X84589Y14189D01*
G01X84614Y14112D01*
G01X84638Y14035D01*
G01X84659Y13957D01*
G01X84679Y13879D01*
G01X84696Y13800D01*
G01X84711Y13721D01*
G01X84725Y13642D01*
G01X84736Y13562D01*
G01X84745Y13481D01*
G01X84752Y13401D01*
G01X84758Y13320D01*
G01X84761Y13240D01*
G01X84762Y13159D01*
G01X84762Y9414D01*
G01X84760Y9334D01*
G01X84755Y9254D01*
G01X84749Y9174D01*
G01X84741Y9093D01*
G01X84730Y9014D01*
G01X84718Y8934D01*
G01X84703Y8855D01*
G01X84687Y8776D01*
G01X84669Y8698D01*
G01X84648Y8620D01*
G01X84625Y8543D01*
G01X84602Y8467D01*
G01X84575Y8390D01*
G01X84547Y8315D01*
G01X84517Y8240D01*
G01X84485Y8167D01*
G01X84451Y8094D01*
G01X84415Y8022D01*
G01X84377Y7950D01*
G01X84338Y7880D01*
G01X84297Y7811D01*
G01X84254Y7743D01*
G01X84209Y7677D01*
G01X84163Y7611D01*
G01X84115Y7546D01*
G01X84065Y7483D01*
G01X84014Y7421D01*
G01X83961Y7360D01*
G01X83907Y7301D01*
G01X83851Y7243D01*
G01X83794Y7186D01*
G01X83735Y7131D01*
G01X83675Y7078D01*
G01X83614Y7026D01*
G01X83551Y6976D01*
G01X83487Y6927D01*
G01X83422Y6880D01*
G01X83355Y6834D01*
G01X83287Y6791D01*
G01X83219Y6749D01*
G01X83149Y6709D01*
G01X83079Y6670D01*
G01X83007Y6634D01*
G01X82934Y6599D01*
G01X82861Y6566D01*
G01X82787Y6535D01*
G01X82712Y6506D01*
G01X82636Y6479D01*
G01X82559Y6454D01*
G01X82483Y6430D01*
G01X82405Y6409D01*
G01X82327Y6390D01*
G01X82249Y6373D01*
G01X82169Y6357D01*
G01X82090Y6344D01*
G01X82010Y6332D01*
G01X81931Y6323D01*
G01X81850Y6316D01*
G01X81770Y6311D01*
G01X81690Y6308D01*
G01X81609Y6307D01*
G01X75867Y6307D01*
G01X75786Y6310D01*
G01X75706Y6314D01*
G01X75626Y6320D01*
G01X75546Y6328D01*
G01X75466Y6339D01*
G01X75386Y6351D01*
G01X75307Y6365D01*
G01X75229Y6381D01*
G01X75150Y6400D01*
G01X75073Y6420D01*
G01X74995Y6443D01*
G01X74918Y6467D01*
G01X74842Y6493D01*
G01X74767Y6521D01*
G01X74692Y6551D01*
G01X74618Y6583D01*
G01X74545Y6617D01*
G01X74473Y6653D01*
G01X74402Y6691D01*
G01X74332Y6730D01*
G01X74263Y6771D01*
G01X74195Y6814D01*
G01X74128Y6859D01*
G01X74062Y6905D01*
G01X73997Y6953D01*
G01X73934Y7002D01*
G01X73872Y7054D01*
G01X73811Y7107D01*
G01X73752Y7161D01*
G01X73694Y7217D01*
G01X73637Y7274D01*
G01X73582Y7333D01*
G01X73529Y7393D01*
G01X73476Y7455D01*
G01X73426Y7517D01*
G01X73377Y7581D01*
G01X73330Y7647D01*
G01X73285Y7713D01*
G01X73241Y7780D01*
G01X73199Y7849D01*
G01X73159Y7919D01*
G01X73120Y7990D01*
G01X73084Y8061D01*
G01X73049Y8134D01*
G01X73016Y8207D01*
G01X72985Y8282D01*
G01X72956Y8356D01*
G01X72929Y8432D01*
G01X72903Y8509D01*
G01X72859Y8663D01*
G01X72840Y8741D01*
G01X72822Y8820D01*
G01X72807Y8899D01*
G01X72794Y8979D01*
G01X72782Y9058D01*
G01X72773Y9138D01*
G01X72766Y9218D01*
G01X72761Y9299D01*
G01X72758Y9379D01*
G01X72757Y9460D01*
G01X72757Y10859D01*
G01X72756Y10873D01*
G01X72753Y10888D01*
G01X72747Y10902D01*
G01X72739Y10916D01*
G01X72730Y10927D01*
G01X72719Y10937D01*
G01X72707Y10946D01*
G01X72693Y10953D01*
G01X72679Y10957D01*
G01X72664Y10960D01*
G01X72615Y10965D01*
G01X72568Y10972D01*
G01X72520Y10982D01*
G01X72473Y10993D01*
G01X72426Y11007D01*
G01X72380Y11022D01*
G01X72334Y11040D01*
G01X72290Y11059D01*
G01X72246Y11081D01*
G01X72203Y11105D01*
G01X72162Y11129D01*
G01X72082Y11185D01*
G01X72044Y11216D01*
G01X72008Y11248D01*
G01X71972Y11281D01*
G01X68772Y14482D01*
G01X68738Y14517D01*
G01X68706Y14553D01*
G01X68676Y14591D01*
G01X68647Y14631D01*
G01X68620Y14671D01*
G01X68595Y14712D01*
G01X68572Y14755D01*
G01X68550Y14798D01*
G01X68531Y14843D01*
G01X68513Y14888D01*
G01X68498Y14934D01*
G01X68484Y14981D01*
G01X68473Y15028D01*
G01X68463Y15076D01*
G01X68456Y15123D01*
G01X68450Y15172D01*
G01X68447Y15220D01*
G01X68446Y15269D01*
G01X68446Y40267D01*
G01X68445Y40283D01*
G01X68441Y40299D01*
G01X68435Y40314D01*
G01X68427Y40327D01*
G01X68416Y40339D01*
G01X65616Y43139D01*
G01X65602Y43147D01*
G01X65587Y43153D01*
G01X65571Y43157D01*
G01X65556Y43158D01*
G01X49063Y43158D01*
G01X49048Y43157D01*
G01X49032Y43153D01*
G01X49017Y43147D01*
G01X49004Y43139D01*
G01X48992Y43128D01*
G01X48745Y42881D01*
G01X48708Y42846D01*
G01X48669Y42812D01*
G01X48628Y42780D01*
G01X48586Y42750D01*
G01X48543Y42721D01*
G01X48498Y42696D01*
G01X48485Y42687D01*
G01X48474Y42677D01*
G01X48465Y42666D01*
G01X48457Y42652D01*
G01X48451Y42639D01*
G01X48447Y42624D01*
G01X48439Y42580D01*
G01X48428Y42536D01*
G01X48415Y42492D01*
G01X48401Y42449D01*
G01X48384Y42407D01*
G01X48366Y42366D01*
G01X48346Y42325D01*
G01X48323Y42286D01*
G01X48299Y42247D01*
G01X48274Y42210D01*
G01X48247Y42174D01*
G01X48218Y42139D01*
G01X48188Y42105D01*
G01X48156Y42073D01*
G01X48123Y42042D01*
G01X48088Y42013D01*
G01X48052Y41986D01*
G01X48015Y41959D01*
G01X47937Y41913D01*
G01X47897Y41892D01*
G01X47856Y41874D01*
G01X47814Y41856D01*
G01X47728Y41828D01*
G01X47684Y41817D01*
G01X47640Y41808D01*
G01X47595Y41801D01*
G01X47550Y41796D01*
G01X47505Y41793D01*
G01X47460Y41792D01*
G01X46359Y41792D01*
G01X46314Y41793D01*
G01X46268Y41796D01*
G01X46222Y41801D01*
G01X46177Y41809D01*
G01X46132Y41818D01*
G01X46088Y41829D01*
G01X46044Y41843D01*
G01X46001Y41858D01*
G01X45917Y41894D01*
G01X45876Y41916D01*
G01X45837Y41939D01*
G01X45798Y41964D01*
G01X45761Y41990D01*
G01X45725Y42018D01*
G01X45690Y42048D01*
G01X45657Y42079D01*
G01X45625Y42112D01*
G01X45594Y42146D01*
G01X45565Y42182D01*
G01X45538Y42219D01*
G01X45513Y42257D01*
G01X45489Y42296D01*
G01X45467Y42336D01*
G01X45459Y42350D01*
G01X45449Y42362D01*
G01X45437Y42372D01*
G01X45423Y42381D01*
G01X45408Y42387D01*
G01X45393Y42391D01*
G01X45377Y42392D01*
G01X44660Y42392D01*
G01X44631Y42393D01*
G01X44602Y42396D01*
G01X44574Y42401D01*
G01X44546Y42408D01*
G01X44519Y42417D01*
G01X44492Y42428D01*
G01X44467Y42441D01*
G01X44442Y42456D01*
G01X44418Y42472D01*
G01X44396Y42490D01*
G01X44375Y42510D01*
G01X44355Y42531D01*
G01X44337Y42553D01*
G01X44321Y42577D01*
G01X44306Y42602D01*
G01X44293Y42627D01*
G01X44282Y42654D01*
G01X44273Y42681D01*
G01X44266Y42709D01*
G01X44261Y42737D01*
G01X44258Y42766D01*
G01X44257Y42795D01*
G01X44257Y43054D01*
G01X44256Y43068D01*
G01X44253Y43083D01*
G01X44248Y43096D01*
G01X44241Y43109D01*
G01X44232Y43121D01*
G01X44222Y43131D01*
G01X44210Y43140D01*
G01X44197Y43147D01*
G01X44184Y43152D01*
G01X44169Y43155D01*
G01X44155Y43156D01*
G01X43463Y43156D01*
G01X43447Y43155D01*
G01X43432Y43151D01*
G01X43417Y43145D01*
G01X43403Y43136D01*
G01X43391Y43126D01*
G01X40322Y40058D01*
G01X40298Y40034D01*
G01X40272Y40013D01*
G01X40245Y39994D01*
G01X40216Y39976D01*
G01X40187Y39960D01*
G01X40156Y39946D01*
G01X40125Y39935D01*
G01X40093Y39924D01*
G01X40060Y39917D01*
G01X40027Y39912D01*
G01X39994Y39908D01*
G01X39960Y39907D01*
G01X37661Y39907D01*
G01X37647Y39906D01*
G01X37632Y39903D01*
G01X37619Y39898D01*
G01X37606Y39891D01*
G01X37594Y39882D01*
G01X37584Y39872D01*
G01X37568Y39848D01*
G01X37560Y39820D01*
G01X37559Y39806D01*
G01X37559Y39457D01*
G01X37561Y39441D01*
G01X37564Y39427D01*
G01X37569Y39412D01*
G01X37577Y39399D01*
G01X37587Y39387D01*
G01X37598Y39377D01*
G01X37611Y39369D01*
G01X37636Y39352D01*
G01X37660Y39335D01*
G01X37683Y39315D01*
G01X37705Y39294D01*
G01X37724Y39271D01*
G01X37742Y39247D01*
G01X37758Y39221D01*
G01X37772Y39194D01*
G01X37784Y39167D01*
G01X37794Y39139D01*
G01X37802Y39110D01*
G01X37808Y39080D01*
G01X37811Y39050D01*
G01X37812Y39020D01*
G01X37812Y38020D01*
G01X37811Y37989D01*
G01X37808Y37959D01*
G01X37802Y37930D01*
G01X37794Y37901D01*
G01X37784Y37873D01*
G01X37772Y37845D01*
G01X37758Y37818D01*
G01X37742Y37793D01*
G01X37724Y37768D01*
G01X37705Y37746D01*
G01X37683Y37724D01*
G01X37660Y37705D01*
G01X37636Y37687D01*
G01X37611Y37671D01*
G01X37598Y37662D01*
G01X37587Y37652D01*
G01X37577Y37640D01*
G01X37569Y37627D01*
G01X37564Y37613D01*
G01X37561Y37598D01*
G01X37559Y37583D01*
G01X37559Y37524D01*
G01X37560Y37509D01*
G01X37568Y37481D01*
G01X37576Y37469D01*
G01X37584Y37458D01*
G01X37594Y37447D01*
G01X37606Y37438D01*
G01X37619Y37432D01*
G01X37632Y37427D01*
G01X37647Y37424D01*
G01X37661Y37422D01*
G01X38310Y37422D01*
G01X38340Y37421D01*
G01X38370Y37417D01*
G01X38400Y37412D01*
G01X38429Y37404D01*
G01X38458Y37394D01*
G01X38486Y37381D01*
G01X38513Y37367D01*
G01X38539Y37351D01*
G01X38563Y37333D01*
G01X38586Y37313D01*
G01X38607Y37291D01*
G01X38627Y37268D01*
G01X38644Y37243D01*
G01X38661Y37217D01*
G01X38669Y37204D01*
G01X38679Y37193D01*
G01X38691Y37183D01*
G01X38704Y37176D01*
G01X38719Y37170D01*
G01X38734Y37166D01*
G01X38749Y37165D01*
G01X38769Y37167D01*
G01X38788Y37173D01*
G01X38825Y37187D01*
G01X38863Y37200D01*
G01X38901Y37209D01*
G01X38941Y37217D01*
G01X38980Y37222D01*
G01X39020Y37226D01*
G01X39059Y37227D01*
G01X39098Y37226D01*
G01X39136Y37223D01*
G01X39174Y37218D01*
G01X39212Y37211D01*
G01X39249Y37201D01*
G01X39285Y37190D01*
G01X39322Y37177D01*
G01X39357Y37161D01*
G01X39391Y37145D01*
G01X39424Y37126D01*
G01X39457Y37105D01*
G01X39488Y37083D01*
G01X39518Y37059D01*
G01X39546Y37033D01*
G01X39573Y37006D01*
G01X39599Y36978D01*
G01X39623Y36948D01*
G01X39645Y36917D01*
G01X39666Y36884D01*
G01X39685Y36851D01*
G01X39702Y36816D01*
G01X39717Y36781D01*
G01X39730Y36745D01*
G01X39741Y36709D01*
G01X39747Y36693D01*
G01X39756Y36677D01*
G01X39767Y36664D01*
G01X39985Y36446D01*
G01X40010Y36420D01*
G01X40033Y36392D01*
G01X40055Y36362D01*
G01X40074Y36332D01*
G01X40092Y36300D01*
G01X40108Y36267D01*
G01X40122Y36234D01*
G01X40134Y36199D01*
G01X40144Y36164D01*
G01X40152Y36129D01*
G01X40157Y36093D01*
G01X40160Y36057D01*
G01X40161Y36020D01*
G01X40161Y30219D01*
G01X40160Y30182D01*
G01X40157Y30146D01*
G01X40152Y30110D01*
G01X40144Y30075D01*
G01X40134Y30040D01*
G01X40122Y30005D01*
G01X40108Y29972D01*
G01X40092Y29939D01*
G01X40074Y29907D01*
G01X40055Y29877D01*
G01X40033Y29847D01*
G01X40010Y29819D01*
G01X39985Y29793D01*
G01X38992Y28800D01*
G01X38982Y28788D01*
G01X38973Y28774D01*
G01X38967Y28760D01*
G01X38963Y28744D01*
G01X38962Y28728D01*
G01X38962Y28170D01*
G01X38961Y28138D01*
G01X38957Y28106D01*
G01X38951Y28074D01*
G01X38942Y28044D01*
G01X38930Y28013D01*
G01X38917Y27984D01*
G01X38901Y27956D01*
G01X38883Y27930D01*
G01X38875Y27916D01*
G01X38868Y27902D01*
G01X38864Y27886D01*
G01X38863Y27870D01*
G01X38864Y27854D01*
G01X38868Y27838D01*
G01X38875Y27823D01*
G01X38883Y27809D01*
G01X38901Y27783D01*
G01X38917Y27755D01*
G01X38930Y27726D01*
G01X38942Y27696D01*
G01X38951Y27665D01*
G01X38957Y27633D01*
G01X38961Y27602D01*
G01X38962Y27570D01*
G01X38962Y26470D01*
G01X38961Y26441D01*
G01X38958Y26412D01*
G01X38953Y26383D01*
G01X38946Y26355D01*
G01X38936Y26328D01*
G01X38925Y26301D01*
G01X38912Y26275D01*
G01X38897Y26250D01*
G01X38881Y26227D01*
G01X38862Y26204D01*
G01X38842Y26183D01*
G01X38821Y26163D01*
G01X38798Y26145D01*
G01X38774Y26129D01*
G01X38749Y26114D01*
G01X38723Y26102D01*
G01X38710Y26095D01*
G01X38698Y26086D01*
G01X38688Y26076D01*
G01X38679Y26064D01*
G01X38672Y26051D01*
G01X38667Y26038D01*
G01X38664Y26024D01*
G01X38663Y26009D01*
G01X38663Y25220D01*
G01X38662Y25184D01*
G01X38659Y25148D01*
G01X38653Y25112D01*
G01X38645Y25076D01*
G01X38635Y25041D01*
G01X38624Y25006D01*
G01X38610Y24973D01*
G01X38594Y24940D01*
G01X38576Y24908D01*
G01X38556Y24878D01*
G01X38535Y24848D01*
G01X38511Y24821D01*
G01X38486Y24794D01*
G01X37536Y23844D01*
G01X37510Y23819D01*
G01X37482Y23796D01*
G01X37453Y23775D01*
G01X37422Y23755D01*
G01X37390Y23737D01*
G01X37358Y23721D01*
G01X37324Y23707D01*
G01X37290Y23695D01*
G01X37254Y23685D01*
G01X37219Y23678D01*
G01X37183Y23672D01*
G01X37147Y23669D01*
G01X37110Y23668D01*
G01X36808Y23668D01*
G01X36793Y23667D01*
G01X36779Y23664D01*
G01X36766Y23659D01*
G01X36753Y23652D01*
G01X36741Y23643D01*
G01X36731Y23633D01*
G01X36722Y23621D01*
G01X36710Y23595D01*
G01X36707Y23581D01*
G01X36706Y23566D01*
G01X36707Y23552D01*
G01X36710Y23538D01*
G01X36715Y23524D01*
G01X36731Y23488D01*
G01X36744Y23450D01*
G01X36756Y23412D01*
G01X36765Y23373D01*
G01X36772Y23334D01*
G01X36778Y23294D01*
G01X36781Y23254D01*
G01X36782Y23214D01*
G01X36782Y21715D01*
G01X36781Y21675D01*
G01X36778Y21636D01*
G01X36773Y21597D01*
G01X36766Y21558D01*
G01X36756Y21520D01*
G01X36745Y21482D01*
G01X36732Y21445D01*
G01X36717Y21408D01*
G01X36700Y21373D01*
G01X36681Y21338D01*
G01X36661Y21305D01*
G01X36638Y21272D01*
G01X36614Y21241D01*
G01X36589Y21211D01*
G01X36562Y21182D01*
G01X36533Y21155D01*
G01X36503Y21129D01*
G01X36472Y21106D01*
G01X36439Y21083D01*
G01X36406Y21063D01*
G01X36371Y21044D01*
G01X36336Y21027D01*
G01X36299Y21012D01*
G01X36262Y20999D01*
G01X36224Y20988D01*
G01X36186Y20979D01*
G01X36147Y20971D01*
G01X36108Y20966D01*
G01X36069Y20963D01*
G01X36029Y20962D01*
G01X35990Y20963D01*
G01X35951Y20966D01*
G01X35912Y20971D01*
G01X35873Y20979D01*
G01X35835Y20988D01*
G01X35797Y20999D01*
G01X35759Y21012D01*
G01X35723Y21027D01*
G01X35688Y21044D01*
G01X35653Y21063D01*
G01X35619Y21083D01*
G01X35587Y21106D01*
G01X35556Y21130D01*
G01X35526Y21155D01*
G01X35497Y21183D01*
G01X35470Y21211D01*
G01X35458Y21223D01*
G01X35443Y21232D01*
G01X35428Y21239D01*
G01X35411Y21243D01*
G01X35394Y21245D01*
G01X35377Y21243D01*
G01X35361Y21239D01*
G01X35345Y21232D01*
G01X35331Y21223D01*
G01X35319Y21211D01*
G01X35292Y21183D01*
G01X35263Y21155D01*
G01X35233Y21130D01*
G01X35202Y21106D01*
G01X35170Y21083D01*
G01X35136Y21063D01*
G01X35101Y21044D01*
G01X35066Y21027D01*
G01X35029Y21012D01*
G01X34992Y20999D01*
G01X34954Y20988D01*
G01X34916Y20979D01*
G01X34877Y20971D01*
G01X34838Y20966D01*
G01X34799Y20963D01*
G01X34759Y20962D01*
G01X34720Y20963D01*
G01X34681Y20966D01*
G01X34642Y20971D01*
G01X34603Y20979D01*
G01X34565Y20988D01*
G01X34527Y20999D01*
G01X34489Y21012D01*
G01X34453Y21027D01*
G01X34418Y21044D01*
G01X34383Y21063D01*
G01X34349Y21083D01*
G01X34317Y21106D01*
G01X34286Y21130D01*
G01X34256Y21155D01*
G01X34227Y21183D01*
G01X34200Y21211D01*
G01X34188Y21223D01*
G01X34173Y21232D01*
G01X34158Y21239D01*
G01X34141Y21243D01*
G01X34124Y21245D01*
G01X34107Y21243D01*
G01X34091Y21239D01*
G01X34075Y21232D01*
G01X34061Y21223D01*
G01X34049Y21211D01*
G01X34019Y21180D01*
G01X33988Y21150D01*
G01X33955Y21123D01*
G01X33920Y21097D01*
G01X33884Y21074D01*
G01X33846Y21052D01*
G01X33808Y21032D01*
G01X33769Y21016D01*
G01X33728Y21001D01*
G01X33728Y21851D01*
G01X33905Y21851D01*
G01X33919Y21852D01*
G01X33934Y21855D01*
G01X33947Y21860D01*
G01X33960Y21867D01*
G01X33972Y21876D01*
G01X33982Y21886D01*
G01X33991Y21898D01*
G01X33998Y21910D01*
G01X34003Y21924D01*
G01X34006Y21938D01*
G01X34007Y21952D01*
G01X34007Y22977D01*
G01X34006Y22991D01*
G01X34003Y23005D01*
G01X33998Y23019D01*
G01X33991Y23031D01*
G01X33982Y23043D01*
G01X33972Y23053D01*
G01X33960Y23062D01*
G01X33947Y23069D01*
G01X33934Y23074D01*
G01X33919Y23077D01*
G01X33905Y23078D01*
G01X33728Y23078D01*
G01X33728Y23929D01*
G01X33769Y23913D01*
G01X33808Y23897D01*
G01X33846Y23877D01*
G01X33884Y23855D01*
G01X33920Y23832D01*
G01X33955Y23806D01*
G01X33988Y23779D01*
G01X34019Y23749D01*
G01X34049Y23718D01*
G01X34061Y23706D01*
G01X34075Y23697D01*
G01X34091Y23690D01*
G01X34107Y23686D01*
G01X34124Y23684D01*
G01X34141Y23686D01*
G01X34158Y23690D01*
G01X34173Y23697D01*
G01X34188Y23706D01*
G01X34200Y23718D01*
G01X34229Y23748D01*
G01X34260Y23777D01*
G01X34292Y23804D01*
G01X34305Y23817D01*
G01X34332Y23846D01*
G01X35183Y24697D01*
G01X35209Y24721D01*
G01X35237Y24745D01*
G01X35267Y24766D01*
G01X35297Y24786D01*
G01X35329Y24804D01*
G01X35362Y24820D01*
G01X35395Y24834D01*
G01X35465Y24856D01*
G01X35500Y24863D01*
G01X35536Y24869D01*
G01X35573Y24872D01*
G01X35609Y24873D01*
G01X36819Y24873D01*
G01X36834Y24874D01*
G01X36850Y24878D01*
G01X36865Y24884D01*
G01X36878Y24892D01*
G01X36890Y24903D01*
G01X37428Y25440D01*
G01X37438Y25453D01*
G01X37447Y25466D01*
G01X37453Y25480D01*
G01X37456Y25496D01*
G01X37458Y25512D01*
G01X37458Y26008D01*
G01X37457Y26023D01*
G01X37454Y26037D01*
G01X37448Y26051D01*
G01X37441Y26064D01*
G01X37432Y26075D01*
G01X37422Y26086D01*
G01X37410Y26095D01*
G01X37397Y26101D01*
G01X37371Y26114D01*
G01X37346Y26129D01*
G01X37322Y26145D01*
G01X37299Y26163D01*
G01X37277Y26183D01*
G01X37258Y26203D01*
G01X37239Y26226D01*
G01X37222Y26250D01*
G01X37207Y26275D01*
G01X37194Y26301D01*
G01X37183Y26327D01*
G01X37174Y26355D01*
G01X37166Y26383D01*
G01X37161Y26412D01*
G01X37158Y26441D01*
G01X37157Y26470D01*
G01X37157Y26668D01*
G01X37156Y26682D01*
G01X37153Y26697D01*
G01X37148Y26710D01*
G01X37141Y26723D01*
G01X37132Y26735D01*
G01X37122Y26745D01*
G01X37098Y26761D01*
G01X37084Y26766D01*
G01X37070Y26769D01*
G01X37055Y26770D01*
G01X37040Y26769D01*
G01X37025Y26765D01*
G01X37011Y26760D01*
G01X36997Y26751D01*
G01X36986Y26742D01*
G01X36976Y26731D01*
G01X36809Y26520D01*
G01X36276Y27000D01*
G01X36264Y27009D01*
G01X36251Y27016D01*
G01X36237Y27022D01*
G01X36223Y27025D01*
G01X36208Y27026D01*
G01X36187Y27024D01*
G01X36148Y27017D01*
G01X36108Y27011D01*
G01X36069Y27008D01*
G01X36029Y27007D01*
G01X35990Y27008D01*
G01X35951Y27011D01*
G01X35912Y27016D01*
G01X35873Y27024D01*
G01X35835Y27033D01*
G01X35797Y27044D01*
G01X35759Y27057D01*
G01X35723Y27072D01*
G01X35688Y27089D01*
G01X35653Y27108D01*
G01X35619Y27128D01*
G01X35587Y27151D01*
G01X35556Y27175D01*
G01X35526Y27201D01*
G01X35497Y27227D01*
G01X35470Y27256D01*
G01X35458Y27268D01*
G01X35443Y27277D01*
G01X35428Y27284D01*
G01X35411Y27288D01*
G01X35394Y27290D01*
G01X35377Y27288D01*
G01X35361Y27284D01*
G01X35345Y27277D01*
G01X35331Y27268D01*
G01X35319Y27256D01*
G01X35292Y27227D01*
G01X35263Y27201D01*
G01X35233Y27175D01*
G01X35202Y27151D01*
G01X35170Y27128D01*
G01X35136Y27108D01*
G01X35101Y27089D01*
G01X35066Y27072D01*
G01X35029Y27057D01*
G01X34992Y27044D01*
G01X34954Y27033D01*
G01X34916Y27024D01*
G01X34877Y27016D01*
G01X34838Y27011D01*
G01X34799Y27008D01*
G01X34759Y27007D01*
G01X34720Y27008D01*
G01X34681Y27011D01*
G01X34642Y27016D01*
G01X34603Y27024D01*
G01X34565Y27033D01*
G01X34527Y27044D01*
G01X34489Y27057D01*
G01X34453Y27072D01*
G01X34418Y27089D01*
G01X34383Y27108D01*
G01X34349Y27128D01*
G01X34317Y27151D01*
G01X34286Y27175D01*
G01X34256Y27201D01*
G01X34227Y27227D01*
G01X34200Y27256D01*
G01X34188Y27268D01*
G01X34173Y27277D01*
G01X34158Y27284D01*
G01X34141Y27288D01*
G01X34124Y27290D01*
G01X34107Y27288D01*
G01X34091Y27284D01*
G01X34075Y27277D01*
G01X34061Y27268D01*
G01X34049Y27256D01*
G01X34022Y27227D01*
G01X33993Y27201D01*
G01X33963Y27175D01*
G01X33932Y27151D01*
G01X33900Y27128D01*
G01X33866Y27108D01*
G01X33831Y27089D01*
G01X33796Y27072D01*
G01X33759Y27057D01*
G01X33722Y27044D01*
G01X33684Y27033D01*
G01X33646Y27024D01*
G01X33607Y27016D01*
G01X33568Y27011D01*
G01X33529Y27008D01*
G01X33489Y27007D01*
G01X33450Y27008D01*
G01X33411Y27011D01*
G01X33372Y27016D01*
G01X33333Y27024D01*
G01X33295Y27033D01*
G01X33257Y27044D01*
G01X33219Y27057D01*
G01X33183Y27072D01*
G01X33148Y27089D01*
G01X33113Y27108D01*
G01X33079Y27128D01*
G01X33047Y27151D01*
G01X33016Y27175D01*
G01X32986Y27201D01*
G01X32957Y27227D01*
G01X32930Y27256D01*
G01X32918Y27268D01*
G01X32903Y27277D01*
G01X32888Y27284D01*
G01X32871Y27288D01*
G01X32854Y27290D01*
G01X32837Y27288D01*
G01X32821Y27284D01*
G01X32805Y27277D01*
G01X32791Y27268D01*
G01X32779Y27256D01*
G01X32752Y27227D01*
G01X32723Y27201D01*
G01X32693Y27175D01*
G01X32662Y27151D01*
G01X32630Y27128D01*
G01X32596Y27108D01*
G01X32561Y27089D01*
G01X32526Y27072D01*
G01X32489Y27057D01*
G01X32452Y27044D01*
G01X32414Y27033D01*
G01X32376Y27024D01*
G01X32337Y27016D01*
G01X32298Y27011D01*
G01X32259Y27008D01*
G01X32219Y27007D01*
G01X32180Y27008D01*
G01X32141Y27011D01*
G01X32102Y27016D01*
G01X32064Y27023D01*
G01X32026Y27032D01*
G01X31989Y27044D01*
G01X31951Y27056D01*
G01X31915Y27071D01*
G01X31880Y27088D01*
G01X31846Y27107D01*
G01X31812Y27127D01*
G01X31800Y27133D01*
G01X31786Y27139D01*
G01X31772Y27142D01*
G01X31757Y27143D01*
G01X31741Y27142D01*
G01X31726Y27138D01*
G01X31711Y27132D01*
G01X31697Y27123D01*
G01X31685Y27113D01*
G01X30281Y25709D01*
G01X30255Y25684D01*
G01X30228Y25662D01*
G01X30200Y25640D01*
G01X30170Y25621D01*
G01X30139Y25604D01*
G01X30108Y25588D01*
G01X30076Y25574D01*
G01X30062Y25567D01*
G01X30050Y25559D01*
G01X30038Y25549D01*
G01X30029Y25537D01*
G01X30022Y25524D01*
G01X30016Y25509D01*
G01X30012Y25495D01*
G01X30011Y25479D01*
G01X30012Y25465D01*
G01X30015Y25451D01*
G01X30021Y25437D01*
G01X30028Y25425D01*
G01X30036Y25413D01*
G01X30046Y25403D01*
G01X30058Y25394D01*
G01X30071Y25387D01*
G01X30103Y25371D01*
G01X30134Y25353D01*
G01X30163Y25334D01*
G01X30192Y25313D01*
G01X30220Y25290D01*
G01X30246Y25266D01*
G01X31664Y23847D01*
G01X31676Y23837D01*
G01X31690Y23828D01*
G01X31705Y23822D01*
G01X31720Y23818D01*
G01X31736Y23817D01*
G01X31751Y23818D01*
G01X31766Y23822D01*
G01X31780Y23827D01*
G01X31793Y23835D01*
G01X31828Y23857D01*
G01X31864Y23878D01*
G01X31901Y23896D01*
G01X31938Y23913D01*
G01X31977Y23927D01*
G01X32016Y23939D01*
G01X32056Y23949D01*
G01X32096Y23957D01*
G01X32137Y23963D01*
G01X32178Y23966D01*
G01X32219Y23967D01*
G01X32259Y23966D01*
G01X32298Y23963D01*
G01X32337Y23958D01*
G01X32376Y23950D01*
G01X32414Y23941D01*
G01X32452Y23930D01*
G01X32489Y23917D01*
G01X32526Y23902D01*
G01X32561Y23885D01*
G01X32596Y23866D01*
G01X32630Y23846D01*
G01X32662Y23823D01*
G01X32693Y23799D01*
G01X32723Y23774D01*
G01X32752Y23747D01*
G01X32779Y23718D01*
G01X32791Y23706D01*
G01X32805Y23697D01*
G01X32821Y23690D01*
G01X32837Y23686D01*
G01X32854Y23684D01*
G01X32871Y23686D01*
G01X32888Y23690D01*
G01X32903Y23697D01*
G01X32918Y23706D01*
G01X32930Y23718D01*
G01X32960Y23749D01*
G01X32991Y23779D01*
G01X33024Y23806D01*
G01X33059Y23832D01*
G01X33095Y23855D01*
G01X33133Y23877D01*
G01X33171Y23897D01*
G01X33210Y23913D01*
G01X33251Y23929D01*
G01X33251Y23078D01*
G01X33074Y23078D01*
G01X33059Y23077D01*
G01X33045Y23074D01*
G01X33031Y23069D01*
G01X33019Y23062D01*
G01X33007Y23053D01*
G01X32997Y23043D01*
G01X32988Y23031D01*
G01X32981Y23019D01*
G01X32976Y23005D01*
G01X32973Y22991D01*
G01X32972Y22977D01*
G01X32972Y21952D01*
G01X32973Y21938D01*
G01X32976Y21924D01*
G01X32981Y21910D01*
G01X32988Y21898D01*
G01X32997Y21886D01*
G01X33007Y21876D01*
G01X33019Y21867D01*
G01X33031Y21860D01*
G01X33045Y21855D01*
G01X33059Y21852D01*
G01X33074Y21851D01*
G01X33251Y21851D01*
G01X33251Y21001D01*
G01X33210Y21016D01*
G01X33171Y21032D01*
G01X33133Y21052D01*
G01X33095Y21074D01*
G01X33059Y21097D01*
G01X33024Y21123D01*
G01X32991Y21150D01*
G01X32960Y21180D01*
G01X32930Y21211D01*
G01X32918Y21223D01*
G01X32903Y21232D01*
G01X32888Y21239D01*
G01X32871Y21243D01*
G01X32854Y21245D01*
G01X32837Y21243D01*
G01X32821Y21239D01*
G01X32805Y21232D01*
G01X32791Y21223D01*
G01X32779Y21211D01*
G01X32752Y21183D01*
G01X32723Y21155D01*
G01X32693Y21130D01*
G01X32662Y21106D01*
G01X32630Y21083D01*
G01X32596Y21063D01*
G01X32561Y21044D01*
G01X32526Y21027D01*
G01X32489Y21012D01*
G01X32452Y20999D01*
G01X32414Y20988D01*
G01X32376Y20979D01*
G01X32337Y20971D01*
G01X32298Y20966D01*
G01X32259Y20963D01*
G01X32219Y20962D01*
G01X32180Y20963D01*
G01X32141Y20966D01*
G01X32102Y20971D01*
G01X32063Y20979D01*
G01X32025Y20988D01*
G01X31987Y20999D01*
G01X31950Y21012D01*
G01X31913Y21027D01*
G01X31878Y21044D01*
G01X31843Y21063D01*
G01X31810Y21083D01*
G01X31777Y21106D01*
G01X31746Y21129D01*
G01X31716Y21155D01*
G01X31687Y21182D01*
G01X31660Y21211D01*
G01X31634Y21241D01*
G01X31611Y21272D01*
G01X31588Y21305D01*
G01X31567Y21338D01*
G01X31549Y21373D01*
G01X31532Y21408D01*
G01X31517Y21445D01*
G01X31503Y21482D01*
G01X31492Y21520D01*
G01X31483Y21558D01*
G01X31476Y21597D01*
G01X31471Y21636D01*
G01X31468Y21675D01*
G01X31467Y21715D01*
G01X31467Y22298D01*
G01X31466Y22314D01*
G01X31462Y22329D01*
G01X31456Y22344D01*
G01X31448Y22357D01*
G01X31437Y22369D01*
G01X30053Y23754D01*
G01X30041Y23764D01*
G01X30027Y23773D01*
G01X30012Y23779D01*
G01X29997Y23782D01*
G01X29981Y23784D01*
G01X29967Y23783D01*
G01X29953Y23780D01*
G01X29939Y23775D01*
G01X29926Y23767D01*
G01X29914Y23759D01*
G01X29904Y23749D01*
G01X29896Y23737D01*
G01X29888Y23724D01*
G01X29883Y23711D01*
G01X29880Y23696D01*
G01X29879Y23682D01*
G01X29879Y604D01*
G01X29880Y589D01*
G01X29883Y575D01*
G01X29888Y562D01*
G01X29896Y549D01*
G01X29904Y537D01*
G01X29914Y527D01*
G01X29926Y518D01*
G01X29939Y511D01*
G01X29953Y506D01*
G01X29967Y503D01*
G01X29981Y502D01*
G01X84945Y502D01*
G01X84971Y506D01*
G01X85003Y513D01*
G01X85034Y518D01*
G01X85067Y521D01*
G01X85099Y522D01*
G01X85184Y523D01*
G01X85268Y526D01*
G01X85352Y532D01*
G01X85437Y539D01*
G01X85521Y548D01*
G01X85604Y559D01*
G01X85688Y572D01*
G01X85771Y587D01*
G01X85854Y605D01*
G01X85936Y624D01*
G01X86018Y645D01*
G01X86099Y668D01*
G01X86180Y693D01*
G01X86260Y721D01*
G01X86339Y749D01*
G01X86418Y780D01*
G01X86496Y813D01*
G01X86573Y848D01*
G01X86649Y885D01*
G01X86725Y923D01*
G01X86799Y963D01*
G01X86872Y1005D01*
G01X86945Y1049D01*
G01X87016Y1094D01*
G01X87086Y1141D01*
G01X87155Y1190D01*
G01X87223Y1241D01*
G01X87289Y1293D01*
G01X87354Y1346D01*
G01X87418Y1402D01*
G01X87481Y1459D01*
G01X87542Y1517D01*
G01X87602Y1577D01*
G01X87660Y1638D01*
G01X87717Y1700D01*
G01X87773Y1764D01*
G01X87826Y1829D01*
G01X87878Y1896D01*
G01X87929Y1964D01*
G01X87978Y2033D01*
G01X88025Y2103D01*
G01X88070Y2174D01*
G01X88114Y2247D01*
G01X88156Y2320D01*
G01X88196Y2394D01*
G01X88234Y2470D01*
G01X88271Y2546D01*
G01X88305Y2623D01*
G01X88338Y2701D01*
G01X88369Y2779D01*
G01X88398Y2859D01*
G01X88425Y2939D01*
G01X88451Y3019D01*
G01X88474Y3101D01*
G01X88495Y3182D01*
G01X88514Y3265D01*
G01X88532Y3347D01*
G01X88547Y3431D01*
G01X88560Y3514D01*
G01X88571Y3598D01*
G01X88580Y3682D01*
G01X88587Y3766D01*
G01X88592Y3850D01*
G01X88596Y3935D01*
G01X88597Y4019D01*
G01X88597Y46845D01*
G01X88593Y46871D01*
G01X88586Y46903D01*
G01X88581Y46935D01*
G01X88578Y46967D01*
G01X88577Y46999D01*
G01X88576Y47084D01*
G01X88573Y47168D01*
G01X88568Y47253D01*
G01X88560Y47337D01*
G01X88551Y47421D01*
G01X88540Y47505D01*
G01X88527Y47588D01*
G01X88512Y47671D01*
G01X88494Y47754D01*
G01X88475Y47837D01*
G01X88454Y47918D01*
G01X88430Y48000D01*
G01X88406Y48080D01*
G01X88379Y48160D01*
G01X88319Y48318D01*
G01X88286Y48396D01*
G01X88251Y48473D01*
G01X88215Y48549D01*
G01X88176Y48625D01*
G01X88136Y48699D01*
G01X88094Y48772D01*
G01X88050Y48845D01*
G01X88005Y48916D01*
G01X87957Y48986D01*
G01X87909Y49055D01*
G01X87858Y49123D01*
G01X87806Y49189D01*
G01X87752Y49255D01*
G01X87697Y49318D01*
G01X87640Y49381D01*
G01X87582Y49442D01*
G01X87522Y49502D01*
G01X87461Y49560D01*
G01X87399Y49617D01*
G01X87335Y49672D01*
G01X87269Y49726D01*
G01X87203Y49778D01*
G01X87135Y49829D01*
G01X87066Y49878D01*
G01X86996Y49925D01*
G01X86925Y49970D01*
G01X86853Y50014D01*
G01X86779Y50056D01*
G01X86705Y50096D01*
G01X86630Y50135D01*
G01X86553Y50171D01*
G01X86476Y50206D01*
G01X86398Y50238D01*
G01X86320Y50269D01*
G01X86240Y50298D01*
G01X86160Y50326D01*
G01X86079Y50351D01*
G01X85998Y50374D01*
G01X85916Y50395D01*
G01X85834Y50414D01*
G01X85751Y50431D01*
G01X85668Y50447D01*
G01X85585Y50460D01*
G01X85501Y50471D01*
G01X85417Y50481D01*
G01X85333Y50488D01*
G01X85248Y50493D01*
G01X85164Y50496D01*
G01X85079Y50497D01*
G01X85072Y50497D01*
G01X45969Y50526D01*
G01X45953Y50524D01*
G01X45938Y50521D01*
G01X45924Y50515D01*
G01X45910Y50507D01*
G01X45898Y50496D01*
G01X45887Y50484D01*
G01X45879Y50470D01*
G01X45855Y50427D01*
G01X45830Y50384D01*
G01X45803Y50342D01*
G01X45774Y50302D01*
G01X45744Y50263D01*
G01X45712Y50225D01*
G01X45678Y50189D01*
G01X45644Y50154D01*
G01X45607Y50120D01*
G01X45569Y50088D01*
G01X45530Y50057D01*
G01X45490Y50029D01*
G01X45449Y50001D01*
G01X45406Y49976D01*
G01X45362Y49952D01*
G01X45318Y49930D01*
G01X45273Y49910D01*
G01X45273Y50425D01*
G01X45272Y50439D01*
G01X45269Y50453D01*
G01X45264Y50467D01*
G01X45257Y50480D01*
G01X45248Y50491D01*
G01X45238Y50501D01*
G01X45226Y50510D01*
G01X45213Y50517D01*
G01X45200Y50522D01*
G01X45185Y50525D01*
G01X45171Y50526D01*
G01X44447Y50527D01*
G01X44433Y50526D01*
G01X44419Y50523D01*
G01X44405Y50518D01*
G01X44392Y50511D01*
G01X44381Y50502D01*
G01X44371Y50492D01*
G01X44362Y50480D01*
G01X44355Y50467D01*
G01X44350Y50454D01*
G01X44347Y50440D01*
G01X44346Y50425D01*
G01X44346Y49910D01*
G01X44300Y49930D01*
G01X44256Y49952D01*
G01X44212Y49976D01*
G01X44169Y50002D01*
G01X44128Y50029D01*
G01X44088Y50057D01*
G01X44048Y50088D01*
G01X44010Y50120D01*
G01X43974Y50155D01*
G01X43939Y50190D01*
G01X43906Y50226D01*
G01X43874Y50264D01*
G01X43843Y50303D01*
G01X43814Y50344D01*
G01X43787Y50386D01*
G01X43762Y50428D01*
G01X43739Y50472D01*
G01X43730Y50486D01*
G01X43720Y50498D01*
G01X43708Y50508D01*
G01X43694Y50516D01*
G01X43680Y50522D01*
G01X43664Y50526D01*
G01X43648Y50527D01*
G37*

%LPD*%
G54D11*
G01X38059Y28720D02*
G01X39559Y30219D01*
G01X39559Y36020D01*
G01X39059Y36520D01*
G01X38060Y27019D02*
G01X38060Y25220D01*
G01X37110Y24270D01*
G01X35609Y24270D01*
G01X34758Y23419D01*
G01X34758Y22464D01*
G54D12*
G01X35060Y51019D02*
G01X32909Y48870D01*
G01X32909Y44070D01*
G01X33961Y43018D01*
G01X33961Y41520D01*
G01X34210Y41271D01*
G01X34560Y41271D01*
G01X45210Y43295D02*
G01X45210Y43668D01*
G01X43209Y43668D01*
G01X39960Y40420D01*
G01X36860Y40420D01*
G01X45210Y44794D02*
G01X45210Y45170D01*
G01X43709Y45170D01*
G01X39359Y40820D01*
G01X37260Y40820D01*
G01X45210Y46295D02*
G01X45210Y45919D01*
G01X43509Y45919D01*
G01X38859Y41270D01*
G01X37360Y41270D01*
G54D13*
G01X37809Y45269D02*
G01X39160Y44020D01*
G54D12*
G01X41560Y51019D02*
G01X41560Y46269D01*
G01X41309Y46020D01*
G01X36860Y43020D02*
G01X36835Y43045D01*
G01X36835Y43145D01*
G01X38510Y43220D01*
G01X41309Y46020D01*
G01X45210Y47793D02*
G01X45210Y47395D01*
G01X43961Y47395D01*
G01X38286Y41720D01*
G01X37360Y41720D01*
G54D11*
G01X36029Y28510D02*
G01X36059Y28540D01*
G01X36059Y31020D01*
G54D13*
G01X39059Y36520D02*
G01X37760Y36520D01*
G01X37760Y36520D01*
G54D11*
G01X36059Y32718D02*
G01X36059Y33021D01*
G01X38059Y35021D01*
G01X38059Y35320D01*
G01X27622Y26134D02*
G01X29855Y26134D01*
G01X32219Y28499D01*
G01X32219Y28510D01*
G54D14*
G01X32058Y41319D02*
G01X34060Y39317D01*
G01X34060Y35721D01*
G54D13*
G01X32560Y37170D02*
G01X32560Y36020D01*
G01X32560Y36020D01*
G54D12*
G01X36409Y40320D02*
G01X36409Y39121D01*
G01X36960Y38571D01*
G01X36960Y38520D01*
G54D14*
G01X32059Y46770D02*
G01X32059Y45254D01*
G54D12*
G01X46910Y44794D02*
G01X46910Y45144D01*
G01X66686Y45144D01*
G01X70559Y41271D01*
G01X70559Y24618D01*
G01X74159Y21019D01*
G01X80059Y21019D01*
G01X46910Y43295D02*
G01X46910Y43668D01*
G01X47959Y43668D01*
G01X48561Y44270D01*
G01X66059Y44270D01*
G01X69559Y40770D01*
G01X69559Y15269D01*
G01X72759Y12068D01*
G01X79759Y12068D01*
G01X46910Y47793D02*
G01X46910Y47395D01*
G01X47936Y47395D01*
G01X48561Y46770D01*
G01X68060Y46770D01*
G01X72810Y42020D01*
G01X78060Y42020D01*
G01X46910Y46295D02*
G01X46910Y45893D01*
G01X67435Y45893D01*
G01X71560Y41768D01*
G01X71560Y34720D01*
G01X76259Y30018D01*
G01X80059Y30018D01*
G54D15*
G01X44809Y51019D02*
G01X44809Y49170D01*
G54D13*
G01X38560Y47770D02*
G01X38660Y47870D01*
G01X38660Y48520D01*
G01X40059Y47770D02*
G01X39959Y47870D01*
G01X39959Y48520D01*
G01X40609Y48519D02*
G01X41511Y48504D01*
G01X38009Y48519D02*
G01X37110Y48537D01*
G01X34660Y48520D02*
G01X34660Y48520D01*
G01X35310Y48520D01*
G01X33961Y48520D02*
G01X33034Y48494D01*
G54D14*
G01X32059Y45254D02*
G01X32059Y41320D01*
G01X32060Y41820D01*
G54D12*
G01X35860Y47020D02*
G01X36328Y47488D01*
G01X37059Y47488D01*
G54D14*
G01X32061Y51019D02*
G01X32059Y51018D01*
G01X32059Y46770D01*
G54D11*
G01X32219Y22464D02*
G01X32194Y22464D01*
G01X29819Y24839D01*
G01X28379Y24839D01*
G54D16*
G01X33839Y28860D02*
G01X34758Y28860D01*
G01X34758Y28510D01*
G54D13*
G01X34441Y29041D02*
G01X34441Y29396D01*
G01X33658Y29396D01*
G01X38059Y35320D02*
G01X38059Y35320D01*
G01X37759Y35020D01*
G54D12*
G01X38309Y51019D02*
G01X38309Y50770D01*
G01X37059Y49521D01*
G01X37059Y45269D01*
G01X35960Y40320D02*
G01X35960Y39120D01*
G01X35360Y38520D01*
G01X35960Y43120D02*
G01X35960Y44420D01*
G01X35960Y44420D01*
G01X35510Y43120D02*
G01X35510Y43470D01*
G01X35060Y43920D01*
G01X35060Y44420D01*
G54D16*
G01X33489Y22464D02*
G01X33459Y22434D01*
G01X33459Y19394D01*
G54D12*
G01X37059Y45269D02*
G01X37059Y44220D01*
G01X36409Y43569D01*
G01X36409Y43120D01*
G54D13*
G01X31059Y47270D02*
G01X31059Y47270D01*
G01X31060Y47270D01*
G54D11*
G01X37709Y33020D02*
G01X37660Y33020D01*
G01X36960Y33720D01*
G54D14*
G01X38409Y31020D02*
G01X39360Y31020D01*
G54D16*
G01X34059Y34020D02*
G01X32860Y34020D01*
G01X32560Y34320D01*
G54D11*
G01X36059Y35020D02*
G01X35060Y35020D01*
G01X34359Y35721D01*
G01X34060Y35721D01*
G01X36159Y36320D02*
G01X34160Y36320D01*
G01X35360Y38520D02*
G01X35360Y39220D01*
G01X35310Y39270D01*
G54D13*
G01X36960Y38520D02*
G01X36960Y37720D01*
G01X36059Y36821D01*
G01X36059Y36521D01*
G54D16*
G01X34060Y31020D02*
G01X34060Y28860D01*
G01X34060Y31020D02*
G01X34059Y31020D01*
G01X34059Y34020D01*
G54D13*
G01X33110Y32820D02*
G01X34059Y32820D01*
G01X33160Y41720D02*
G01X33110Y41770D01*
G01X33110Y42320D01*
G01X38559Y32020D02*
G01X38409Y32170D01*
G01X38409Y33020D01*
G01X37559Y32020D02*
G01X37709Y31870D01*
G01X37709Y31020D01*
G54D17*
G01X32219Y21714D02*
G01X32219Y23214D01*
G01X33489Y21714D02*
G01X33489Y23214D01*
G01X34759Y21714D02*
G01X34759Y23214D01*
G01X36029Y21714D02*
G01X36029Y23214D01*
G01X32219Y27760D02*
G01X32219Y29260D01*
G01X33489Y27760D02*
G01X33489Y29260D01*
G01X34759Y27760D02*
G01X34759Y29260D01*
G01X36029Y27760D02*
G01X36029Y29260D01*
G54D18*
G01X4059Y46799D02*
G01X4059Y4199D01*
G01X3459Y46799D02*
G01X3459Y4199D01*
G01X2860Y46799D02*
G01X2860Y4199D01*
G01X2260Y46799D02*
G01X2260Y4199D01*
G01X1660Y46799D02*
G01X1660Y4199D01*
G01X23960Y47099D02*
G01X4359Y47099D01*
G01X23960Y47699D02*
G01X4359Y47699D01*
G01X23960Y48299D02*
G01X4359Y48299D01*
G01X23960Y48899D02*
G01X4359Y48899D01*
G01X23960Y49499D02*
G01X4359Y49499D01*
G01X23960Y3900D02*
G01X4359Y3900D01*
G01X23960Y3300D02*
G01X4359Y3300D01*
G01X23960Y2699D02*
G01X4359Y2699D01*
G01X23960Y2099D02*
G01X4359Y2099D01*
G01X23960Y1499D02*
G01X4359Y1499D01*
G01X24260Y46799D02*
G01X24260Y25499D01*
G01X24859Y24899D01*
G01X24859Y4199D01*
G01X25459Y46799D02*
G01X25459Y25899D01*
G01X26059Y25300D01*
G01X26059Y4199D01*
G01X24859Y46799D02*
G01X24859Y25699D01*
G01X25459Y25099D01*
G01X25459Y4199D01*
G01X26059Y46799D02*
G01X26059Y26099D01*
G01X26660Y25499D01*
G01X26660Y4199D01*
G01X24260Y4199D02*
G01X24260Y24699D01*
G01X24094Y24864D01*
G01X23684Y24864D01*
G01X27621Y26134D02*
G01X27494Y26134D01*
G01X26824Y26134D01*
G01X26660Y26300D01*
G01X26660Y46799D01*
G54D21*
G01X33110Y32820D03*
G01X32410Y32820D03*
G36*
G01X33042Y39301D02*
G01X33042Y38438D01*
G01X32077Y38438D01*
G01X32077Y39301D01*
G01X33042Y39301D01*
G37*
G36*
G01X33042Y37602D02*
G01X33042Y36738D01*
G01X32077Y36738D01*
G01X32077Y37602D01*
G01X33042Y37602D01*
G37*
G54D22*
G01X34060Y35720D03*
G01X34060Y34020D03*
G01X36059Y32720D03*
G01X36059Y31020D03*
G01X38059Y28720D03*
G01X38059Y27020D03*
G01X32560Y34320D03*
G01X32560Y36020D03*
G54D23*
G01X32359Y31020D03*
G01X34060Y31020D03*
G54D21*
G01X37960Y48520D03*
G01X38660Y48520D03*
G01X40660Y48520D03*
G01X39960Y48520D03*
G54D23*
G01X45210Y43294D03*
G01X46910Y43294D03*
G01X45210Y44794D03*
G01X46910Y44794D03*
G01X45210Y46294D03*
G01X46910Y46294D03*
G01X45210Y47794D03*
G01X46910Y47794D03*
G01X37760Y35020D03*
G01X36059Y35020D03*
G01X37760Y36520D03*
G01X36059Y36520D03*
G01X34159Y45520D03*
G01X35859Y45520D03*
G01X34159Y47020D03*
G01X35859Y47020D03*
G54D21*
G01X37709Y33020D03*
G01X38409Y33020D03*
G01X38409Y31020D03*
G01X37709Y31020D03*
G01X34659Y48520D03*
G01X33959Y48520D03*
G01X33110Y42320D03*
G01X32410Y42320D03*
G54D24*
G01X27495Y26134D03*
G54D25*
G01X36960Y38520D03*
G01X35360Y38520D03*
G54D26*
G01X35509Y40320D03*
G01X35960Y40320D03*
G01X36409Y40320D03*
G54D27*
G01X37360Y41270D03*
G01X37360Y41720D03*
G01X37360Y42170D03*
G54D26*
G01X36409Y43120D03*
G01X35960Y43120D03*
G01X35509Y43120D03*
G54D27*
G01X34560Y42170D03*
G01X34560Y41720D03*
G01X34560Y41270D03*
G36*
G01X35340Y40945D02*
G01X35185Y41100D01*
G01X35185Y42495D01*
G01X36735Y42495D01*
G01X36735Y40945D01*
G01X35340Y40945D01*
G01X35340Y40945D01*
G37*
G36*
G01X34949Y40020D02*
G01X34949Y40460D01*
G01X35109Y40620D01*
G01X35170Y40620D01*
G01X35170Y40020D01*
G01X34949Y40020D01*
G37*
G36*
G01X37659Y40709D02*
G01X37219Y40709D01*
G01X37059Y40869D01*
G01X37059Y40930D01*
G01X37659Y40930D01*
G01X37659Y40709D01*
G37*
G36*
G01X34260Y42731D02*
G01X34700Y42731D01*
G01X34860Y42571D01*
G01X34860Y42510D01*
G01X34260Y42510D01*
G01X34260Y42731D01*
G37*
G36*
G01X36970Y43420D02*
G01X36970Y42980D01*
G01X36810Y42820D01*
G01X36749Y42820D01*
G01X36749Y43420D01*
G01X36970Y43420D01*
G37*
G36*
G01X37659Y42731D02*
G01X37219Y42731D01*
G01X37059Y42571D01*
G01X37059Y42510D01*
G01X37659Y42510D01*
G01X37659Y42731D01*
G37*
G36*
G01X34949Y43420D02*
G01X34949Y42980D01*
G01X35109Y42820D01*
G01X35170Y42820D01*
G01X35170Y43420D01*
G01X34949Y43420D01*
G37*
G36*
G01X34260Y40709D02*
G01X34700Y40709D01*
G01X34860Y40869D01*
G01X34860Y40930D01*
G01X34260Y40930D01*
G01X34260Y40709D01*
G37*
G36*
G01X36970Y40020D02*
G01X36970Y40460D01*
G01X36810Y40620D01*
G01X36749Y40620D01*
G01X36749Y40020D01*
G01X36970Y40020D01*
G37*
G54D18*
G75*
G01X24260Y4200D02*
G02X23960Y3900I-300J0D01*
G01*
G75*
G01X24860Y4200D02*
G02X23960Y3300I-900J0D01*
G01*
G75*
G01X25460Y4200D02*
G02X23960Y2700I-1500J0D01*
G01*
G75*
G01X26060Y4200D02*
G02X23960Y2100I-2100J0D01*
G01*
G75*
G01X26660Y4200D02*
G02X23960Y1500I-2700J0D01*
G01*
G75*
G01X24260Y46800D02*
G03X23960Y47100I-300J0D01*
G01*
G75*
G01X24860Y46800D02*
G03X23960Y47700I-900J0D01*
G01*
G75*
G01X25460Y46800D02*
G03X23960Y48300I-1500J0D01*
G01*
G75*
G01X26060Y46800D02*
G03X23960Y48900I-2100J0D01*
G01*
G75*
G01X26660Y46800D02*
G03X23960Y49500I-2700J0D01*
G01*
G75*
G01X4060Y46800D02*
G02X4360Y47100I300J0D01*
G01*
G75*
G01X3460Y46800D02*
G02X4360Y47700I900J0D01*
G01*
G75*
G01X2860Y46800D02*
G02X4360Y48300I1500J0D01*
G01*
G75*
G01X2260Y46800D02*
G02X4360Y48900I2100J0D01*
G01*
G75*
G01X1660Y46800D02*
G02X4360Y49500I2700J0D01*
G01*
G75*
G01X4060Y4200D02*
G03X4360Y3900I300J0D01*
G01*
G75*
G01X3460Y4200D02*
G03X4360Y3300I900J0D01*
G01*
G75*
G01X2860Y4200D02*
G03X4360Y2700I1500J0D01*
G01*
G75*
G01X2260Y4200D02*
G03X4360Y2100I2100J0D01*
G01*
G75*
G01X1660Y4200D02*
G03X4360Y1500I2700J0D01*
G01*
G54D13*
G75*
G01X77910Y13150D02*
G03X77910Y13150I-2000J0D01*
G01*
G75*
G01X77910Y9460D02*
G03X77910Y9460I-2000J0D01*
G01*
G75*
G01X83610Y13160D02*
G03X83610Y13160I-2000J0D01*
G01*
G75*
G01X83610Y9460D02*
G03X83610Y9460I-2000J0D01*
G01*
G75*
G01X83650Y19450D02*
G03X83650Y19450I-2000J0D01*
G01*
G75*
G01X83650Y23150D02*
G03X83650Y23150I-2000J0D01*
G01*
G75*
G01X77950Y19450D02*
G03X77950Y19450I-2000J0D01*
G01*
G75*
G01X77950Y23140D02*
G03X77950Y23140I-2000J0D01*
G01*
G75*
G01X83630Y29490D02*
G03X83630Y29490I-2000J0D01*
G01*
G75*
G01X83630Y33190D02*
G03X83630Y33190I-2000J0D01*
G01*
G75*
G01X77930Y29490D02*
G03X77930Y29490I-2000J0D01*
G01*
G75*
G01X77930Y33180D02*
G03X77930Y33180I-2000J0D01*
G01*
G75*
G01X83670Y39220D02*
G03X83670Y39220I-2000J0D01*
G01*
G75*
G01X83670Y42920D02*
G03X83670Y42920I-2000J0D01*
G01*
G75*
G01X77970Y39220D02*
G03X77970Y39220I-2000J0D01*
G01*
G75*
G01X77970Y42910D02*
G03X77970Y42910I-2000J0D01*
G01*
G75*
G01X77960Y39220D02*
G03X77960Y39220I-2000J0D01*
G01*
G75*
G01X77960Y42910D02*
G03X77960Y42910I-2000J0D01*
G01*
G75*
G01X83660Y42920D02*
G03X83660Y42920I-2000J0D01*
G01*
G75*
G01X83660Y39220D02*
G03X83660Y39220I-2000J0D01*
G01*

%LPD*%
G36*
G01X81649Y15310D02*
G01X75899Y15310D01*
G01X74459Y14634D01*
G01X73759Y13219D01*
G01X73759Y9470D01*
G01X74389Y8129D01*
G01X75889Y7310D01*
G01X81599Y7310D01*
G01X83079Y8049D01*
G01X83759Y9440D01*
G01X83759Y13129D01*
G01X83059Y14569D01*
G01X81649Y15310D01*
G37*

%LPD*%
G36*
G01X81689Y25299D02*
G01X75939Y25299D01*
G01X74499Y24624D01*
G01X73799Y23209D01*
G01X73799Y19459D01*
G01X74429Y18119D01*
G01X75929Y17299D01*
G01X81639Y17299D01*
G01X83119Y18039D01*
G01X83799Y19430D01*
G01X83799Y23119D01*
G01X83099Y24559D01*
G01X81689Y25299D01*
G37*

%LPD*%
G36*
G01X81669Y35339D02*
G01X75919Y35339D01*
G01X74479Y34664D01*
G01X73779Y33249D01*
G01X73779Y29499D01*
G01X74409Y28159D01*
G01X75909Y27339D01*
G01X81619Y27339D01*
G01X83099Y28079D01*
G01X83779Y29469D01*
G01X83779Y33159D01*
G01X83079Y34599D01*
G01X81669Y35339D01*
G37*

%LPD*%
G36*
G01X81709Y45069D02*
G01X75959Y45069D01*
G01X74519Y44394D01*
G01X73819Y42979D01*
G01X73819Y39229D01*
G01X74449Y37889D01*
G01X75949Y37069D01*
G01X81659Y37069D01*
G01X83139Y37809D01*
G01X83819Y39200D01*
G01X83819Y42889D01*
G01X83119Y44329D01*
G01X81709Y45069D01*
G37*

%LPD*%
G36*
G01X81699Y45070D02*
G01X75949Y45070D01*
G01X74509Y44394D01*
G01X73809Y42979D01*
G01X73809Y39230D01*
G01X74439Y37889D01*
G01X75939Y37070D01*
G01X81649Y37070D01*
G01X83129Y37809D01*
G01X83809Y39200D01*
G01X83809Y42889D01*
G01X83109Y44329D01*
G01X81699Y45070D01*
G37*
G54D28*
G01X38310Y51020D03*
G01X41560Y51020D03*
G01X44809Y51020D03*
G01X35059Y51020D03*
G01X32059Y51020D03*
G54D29*
G01X23685Y24864D03*
G54D19*
G01X43060Y21020D03*
G01X43060Y35020D03*
G01X51059Y35020D03*
G01X51059Y28020D03*
G01X51059Y21020D03*
G01X59060Y35020D03*
G01X59060Y28020D03*
G01X59060Y21020D03*
G01X35060Y13020D03*
G01X43060Y13020D03*
G01X51059Y13020D03*
G01X59060Y13020D03*
G01X40059Y39020D03*
G01X36809Y20020D03*
G01X38059Y21770D03*
G01X38310Y23770D03*
G01X39809Y25520D03*
G01X67559Y37270D03*
G01X67559Y35020D03*
G01X67559Y29520D03*
G01X67060Y13020D03*
G01X67559Y17270D03*
G01X67559Y22020D03*
G01X67559Y26520D03*
G01X67559Y32020D03*
G01X67559Y39520D03*
G01X65460Y41520D03*
G01X62460Y42120D03*
G01X59460Y42120D03*
G01X56460Y42120D03*
G01X53460Y42120D03*
G01X50460Y42120D03*
G01X47184Y41019D03*
G01X45310Y41020D03*
G01X43559Y40020D03*
G01X41059Y27770D03*
G01X41059Y32020D03*
G01X40809Y34270D03*
G01X41134Y36544D03*
G01X42059Y38520D03*
G01X40059Y37520D03*
G01X41059Y30270D03*
G01X40559Y23520D03*
G01X31060Y37520D03*
G01X39059Y36520D03*
G01X35060Y44420D03*
G01X35960Y44420D03*
G01X31560Y32520D03*
G01X31060Y29020D03*
G01X34089Y19390D03*
G01X34089Y20440D03*
G01X38060Y35320D03*
G54D20*
G01X28379Y24839D03*
G54D19*
G01X32909Y19399D03*
G01X32909Y20419D03*
G01X31059Y49020D03*
G01X48059Y49020D03*
G01X53179Y49019D03*
G01X57179Y49019D03*
G01X61179Y49019D03*
G01X65179Y49019D03*
G01X69179Y49019D03*
G01X51180Y49020D03*
G01X55180Y49020D03*
G01X59180Y49020D03*
G01X63180Y49020D03*
G01X67180Y49020D03*
G01X71219Y49020D03*
G01X73219Y49020D03*
G01X75219Y49020D03*
G01X77219Y49020D03*
G01X79219Y49020D03*
G01X81219Y49020D03*
G01X83219Y49020D03*
G01X31079Y2039D03*
G01X35079Y2039D03*
G01X39079Y2039D03*
G01X47079Y2039D03*
G01X33079Y2039D03*
G01X37079Y2039D03*
G01X41079Y2039D03*
G01X45079Y2039D03*
G01X49079Y2039D03*
G01X53199Y2039D03*
G01X57199Y2039D03*
G01X61199Y2039D03*
G01X65199Y2039D03*
G01X69199Y2039D03*
G01X51199Y2039D03*
G01X55199Y2039D03*
G01X59199Y2039D03*
G01X63199Y2039D03*
G01X67199Y2039D03*
G01X71239Y2039D03*
G01X73239Y2040D03*
G01X75239Y2039D03*
G01X77239Y2040D03*
G01X79239Y2039D03*
G01X81239Y2099D03*
G01X83239Y2099D03*
G01X43079Y2039D03*
G01X86879Y3479D03*
G01X86820Y7479D03*
G01X86820Y15479D03*
G01X86820Y5479D03*
G01X86820Y9479D03*
G01X86820Y13479D03*
G01X86820Y17479D03*
G01X86820Y21599D03*
G01X86820Y25599D03*
G01X86820Y29599D03*
G01X86820Y33599D03*
G01X86820Y37599D03*
G01X86820Y19599D03*
G01X86820Y23599D03*
G01X86820Y27599D03*
G01X86820Y31599D03*
G01X86820Y35599D03*
G01X86820Y39639D03*
G01X86820Y41639D03*
G01X86820Y43639D03*
G01X86820Y45639D03*
G01X86760Y47639D03*
G01X86820Y11479D03*
G01X85259Y49019D03*
G01X85319Y2099D03*
G01X31079Y3839D03*
G01X31079Y7839D03*
G01X31079Y11839D03*
G01X31079Y19839D03*
G01X31080Y5839D03*
G01X31080Y9839D03*
G01X31080Y13839D03*
G01X31080Y17839D03*
G01X31079Y15839D03*
G01X31059Y31020D03*
G01X31059Y41270D03*
G01X31079Y39259D03*
G01X31059Y47270D03*
G01X31080Y33259D03*
G01X31059Y36020D03*
G01X31080Y45259D03*
G01X31079Y43259D03*
G01X59039Y5659D03*
G01X67039Y5659D03*
G01X35039Y5659D03*
G01X51039Y5659D03*
G01X43039Y5659D03*
G01X32059Y46770D03*
G01X33809Y46770D03*
G01X36310Y45270D03*
G01X37809Y45270D03*
G01X33809Y45270D03*
G01X32059Y45254D03*
G01X35310Y48520D03*
G01X38560Y47770D03*
G01X40059Y47770D03*
G01X35310Y39270D03*
G01X43729Y49019D03*
G01X45729Y49019D03*
G01X43059Y47770D03*
G01X37559Y32020D03*
G01X38559Y32020D03*
G01X43160Y28220D03*
G01X35560Y42120D03*
G01X35560Y41320D03*
G01X33160Y41720D03*
G01X35310Y37770D03*
G01X32809Y26270D03*
G01X32809Y24770D03*
G01X34309Y24770D03*
G01X34309Y26270D03*
G01X35810Y26270D03*
G01X36359Y42120D03*
G01X36360Y41320D03*
G01X35060Y25520D03*
G01X72399Y45179D03*
M00*
M02*
