;Layer: Drill PTH
;EasyEDA v6.3.22, 2020-01-24T05:25:20+01:00
;ad8136d40ef74d3abd72c227764213de,1e61c1b39cbf46459d8771e8f21e6a9c,10
;Gerber Generator version 0.2
M48
METRIC,LZ,000.000
;Holesize 1 = 0.305 METRIC
T01C0.305
;Holesize 2 = 0.306 METRIC
T02C0.306
;Holesize 3 = 0.915 METRIC
T03C0.915
%
G05
G90
T01
X+043060Y+021020
X+043060Y+035020
X+051059Y+035020
X+051059Y+028020
X+051059Y+021020
X+059060Y+035020
X+059060Y+028020
X+059060Y+021020
X+035060Y+013020
X+043060Y+013020
X+051059Y+013020
X+059060Y+013020
X+040059Y+039020
X+036809Y+020020
X+038059Y+021770
X+038310Y+023770
X+039809Y+025520
X+067559Y+037270
X+067559Y+035020
X+067559Y+029520
X+067060Y+013020
X+067559Y+017270
X+067559Y+022020
X+067559Y+026520
X+067559Y+032020
X+067559Y+039520
X+065460Y+041520
X+062460Y+042120
X+059460Y+042120
X+056460Y+042120
X+053460Y+042120
X+050460Y+042120
X+047184Y+041019
X+045310Y+041020
X+043559Y+040020
X+041059Y+027770
X+041059Y+032020
X+040809Y+034270
X+041134Y+036544
X+042059Y+038520
X+040059Y+037520
X+041059Y+030270
X+040559Y+023520
X+031060Y+037520
X+039059Y+036520
X+035060Y+044420
X+035960Y+044420
X+031560Y+032520
X+031060Y+029020
X+034089Y+019390
X+034089Y+020440
X+038060Y+035320
X+032909Y+019399
X+032909Y+020419
X+031059Y+049020
X+048059Y+049020
X+053179Y+049019
X+057179Y+049019
X+061179Y+049019
X+065179Y+049019
X+069179Y+049019
X+051180Y+049020
X+055180Y+049020
X+059180Y+049020
X+063180Y+049020
X+067180Y+049020
X+071219Y+049020
X+073219Y+049020
X+075219Y+049020
X+077219Y+049020
X+079219Y+049020
X+081219Y+049020
X+083219Y+049020
X+031079Y+002039
X+035079Y+002039
X+039079Y+002039
X+047079Y+002039
X+033079Y+002039
X+037079Y+002039
X+041079Y+002039
X+045079Y+002039
X+049079Y+002039
X+053199Y+002039
X+057199Y+002039
X+061199Y+002039
X+065199Y+002039
X+069199Y+002039
X+051199Y+002039
X+055199Y+002039
X+059199Y+002039
X+063199Y+002039
X+067199Y+002039
X+071239Y+002039
X+073239Y+002040
X+075239Y+002039
X+077239Y+002040
X+079239Y+002039
X+081239Y+002099
X+083239Y+002099
X+043079Y+002039
X+086879Y+003479
X+086820Y+007479
X+086820Y+015479
X+086820Y+005479
X+086820Y+009479
X+086820Y+013479
X+086820Y+017479
X+086820Y+021599
X+086820Y+025599
X+086820Y+029599
X+086820Y+033599
X+086820Y+037599
X+086820Y+019599
X+086820Y+023599
X+086820Y+027599
X+086820Y+031599
X+086820Y+035599
X+086820Y+039639
X+086820Y+041639
X+086820Y+043639
X+086820Y+045639
X+086760Y+047639
X+086820Y+011479
X+085259Y+049019
X+085319Y+002099
X+031079Y+003839
X+031079Y+007839
X+031079Y+011839
X+031079Y+019839
X+031080Y+005839
X+031080Y+009839
X+031080Y+013839
X+031080Y+017839
X+031079Y+015839
X+031059Y+031020
X+031059Y+041270
X+031079Y+039259
X+031059Y+047270
X+031080Y+033259
X+031059Y+036020
X+031080Y+045259
X+031079Y+043259
X+059039Y+005659
X+067039Y+005659
X+035039Y+005659
X+051039Y+005659
X+043039Y+005659
X+032059Y+046770
X+033809Y+046770
X+036310Y+045270
X+037809Y+045270
X+033809Y+045270
X+032059Y+045254
X+035310Y+048520
X+038560Y+047770
X+040059Y+047770
X+035310Y+039270
X+043729Y+049019
X+045729Y+049019
X+043059Y+047770
X+037559Y+032020
X+038559Y+032020
X+043160Y+028220
X+035560Y+042120
X+035560Y+041320
X+033160Y+041720
X+035310Y+037770
X+032809Y+026270
X+032809Y+024770
X+034309Y+024770
X+034309Y+026270
X+035810Y+026270
X+036359Y+042120
X+036360Y+041320
X+035060Y+025520
X+072399Y+045179
T02
X+028379Y+024839
X+023684Y+024872G85X+023684Y+024857
T03
X+038310Y+051020
X+041559Y+051020
X+044809Y+051020
X+035059Y+051020
X+032059Y+051020
M30
