G04 Layer: TopSilkLayer*
G04 EasyEDA v6.3.22, 2020-01-24T05:25:20+01:00*
G04 ad8136d40ef74d3abd72c227764213de,1e61c1b39cbf46459d8771e8f21e6a9c,10*
G04 Gerber Generator version 0.2*
G04 Scale: 100 percent, Rotated: No, Reflected: No *
G04 Dimensions in millimeters *
G04 leading zeros omitted , absolute positions ,3 integer and 3 decimal *
%FSLAX33Y33*%
%MOMM*%
G90*
G71D02*

%ADD10C,0.254000*%
%ADD30C,0.101600*%
%ADD31C,0.199898*%
%ADD32C,0.100000*%
%ADD33C,0.127000*%

%LPD*%
G54D30*
G01X33610Y32310D02*
G01X32049Y32310D01*
G01X33610Y33330D02*
G01X32049Y33330D01*
G01X33470Y32310D02*
G01X33470Y33330D01*
G01X32050Y32310D02*
G01X32050Y33330D01*
G01X33610Y32310D02*
G01X33610Y33330D01*
G54D31*
G01X32560Y38120D02*
G01X32660Y37920D01*
G01X32360Y37820D01*
G01X32560Y38020D01*
G01X32960Y37720D01*
G01X32159Y37720D01*
G01X32560Y38320D01*
G01X32960Y37720D01*
G54D30*
G01X37459Y49030D02*
G01X39020Y49030D01*
G01X37459Y48010D02*
G01X39020Y48010D01*
G01X37599Y49030D02*
G01X37600Y48010D01*
G01X39020Y49030D02*
G01X39020Y48010D01*
G01X37459Y49030D02*
G01X37459Y48010D01*
G01X41160Y48010D02*
G01X39599Y48010D01*
G01X41160Y49030D02*
G01X39599Y49030D01*
G01X41020Y48010D02*
G01X41020Y49030D01*
G01X39599Y48010D02*
G01X39599Y49030D01*
G01X41160Y48010D02*
G01X41160Y49030D01*
G01X37209Y33530D02*
G01X38770Y33530D01*
G01X37209Y32510D02*
G01X38770Y32510D01*
G01X37349Y33530D02*
G01X37349Y32510D01*
G01X38770Y33530D02*
G01X38770Y32510D01*
G01X37209Y33530D02*
G01X37209Y32510D01*
G01X38910Y30510D02*
G01X37349Y30510D01*
G01X38910Y31530D02*
G01X37349Y31530D01*
G01X38770Y30510D02*
G01X38770Y31530D01*
G01X37349Y30510D02*
G01X37349Y31530D01*
G01X38910Y30510D02*
G01X38910Y31530D01*
G01X35160Y48010D02*
G01X33599Y48010D01*
G01X35160Y49030D02*
G01X33599Y49030D01*
G01X35020Y48010D02*
G01X35019Y49030D01*
G01X33599Y48010D02*
G01X33599Y49030D01*
G01X35160Y48010D02*
G01X35160Y49030D01*
G01X33610Y41810D02*
G01X32049Y41810D01*
G01X33610Y42830D02*
G01X32049Y42830D01*
G01X33470Y41810D02*
G01X33470Y42830D01*
G01X32050Y41810D02*
G01X32050Y42830D01*
G01X33610Y41810D02*
G01X33610Y42830D01*
G54D10*
G01X31711Y23887D02*
G01X36537Y23887D01*
G01X36537Y27036D01*
G01X31711Y27036D01*
G01X31711Y27036D02*
G01X31711Y26097D01*
G01X31711Y24827D02*
G01X31711Y23887D01*
G54D32*
G01X34458Y40520D02*
G01X34457Y40219D01*
G01X34759Y40219D01*
G01X37160Y40220D02*
G01X37461Y40219D01*
G01X37461Y40521D01*
G01X37460Y42920D02*
G01X37460Y43220D01*
G01X37160Y43220D01*
G01X34760Y43220D02*
G01X34458Y43221D01*
G01X34458Y42919D01*
G01X44304Y49316D02*
G01X44304Y49565D01*
G01X44487Y49428D01*
G01X44487Y49496D01*
G01X44510Y49542D01*
G01X44533Y49565D01*
G01X44602Y49588D01*
G01X44645Y49588D01*
G01X44713Y49565D01*
G01X44759Y49519D01*
G01X44782Y49451D01*
G01X44782Y49382D01*
G01X44759Y49316D01*
G01X44736Y49293D01*
G01X44690Y49270D01*
G01X44668Y49761D02*
G01X44690Y49738D01*
G01X44713Y49761D01*
G01X44690Y49783D01*
G01X44668Y49761D01*
G01X44304Y49979D02*
G01X44304Y50228D01*
G01X44487Y50093D01*
G01X44487Y50159D01*
G01X44510Y50205D01*
G01X44533Y50228D01*
G01X44602Y50251D01*
G01X44645Y50251D01*
G01X44713Y50228D01*
G01X44759Y50182D01*
G01X44782Y50116D01*
G01X44782Y50048D01*
G01X44759Y49979D01*
G01X44736Y49956D01*
G01X44690Y49933D01*
G01X44304Y50401D02*
G01X44782Y50584D01*
G01X44304Y50764D02*
G01X44782Y50584D01*
G01X35556Y49928D02*
G01X36031Y49928D01*
G01X35556Y49770D02*
G01X35556Y50088D01*
G01X35556Y50238D02*
G01X36031Y50555D01*
G01X35556Y50555D02*
G01X36031Y50238D01*
G01X40055Y49770D02*
G01X40532Y49770D01*
G01X40055Y49770D02*
G01X40055Y49973D01*
G01X40077Y50042D01*
G01X40100Y50065D01*
G01X40146Y50088D01*
G01X40192Y50088D01*
G01X40237Y50065D01*
G01X40260Y50042D01*
G01X40283Y49973D01*
G01X40283Y49770D01*
G01X40283Y49928D02*
G01X40532Y50088D01*
G01X40055Y50238D02*
G01X40532Y50555D01*
G01X40055Y50555D02*
G01X40532Y50238D01*
G01X48964Y49792D02*
G01X49328Y49792D01*
G01X49396Y49769D01*
G01X49419Y49746D01*
G01X49442Y49701D01*
G01X49442Y49634D01*
G01X49419Y49589D01*
G01X49033Y49792D02*
G01X48987Y49746D01*
G01X48964Y49701D01*
G01X48964Y49634D01*
G01X48987Y49589D01*
G01X49033Y49543D01*
G01X49102Y49520D01*
G01X49145Y49520D01*
G01X49213Y49543D01*
G01X49259Y49589D01*
G01X49282Y49634D01*
G01X49282Y49701D01*
G01X49259Y49746D01*
G01X49213Y49792D01*
G01X48964Y49942D02*
G01X49282Y49942D01*
G01X49056Y49942D02*
G01X48987Y50010D01*
G01X48964Y50056D01*
G01X48964Y50125D01*
G01X48987Y50170D01*
G01X49056Y50193D01*
G01X49282Y50193D01*
G01X48804Y50615D02*
G01X49282Y50615D01*
G01X49033Y50615D02*
G01X48987Y50569D01*
G01X48964Y50523D01*
G01X48964Y50455D01*
G01X48987Y50412D01*
G01X49033Y50366D01*
G01X49102Y50343D01*
G01X49145Y50343D01*
G01X49213Y50366D01*
G01X49259Y50412D01*
G01X49282Y50455D01*
G01X49282Y50523D01*
G01X49259Y50569D01*
G01X49213Y50615D01*
G01X32660Y31715D02*
G01X32660Y32192D01*
G01X32660Y31715D02*
G01X32500Y31715D01*
G01X32431Y31738D01*
G01X32386Y31783D01*
G01X32363Y31829D01*
G01X32342Y31898D01*
G01X32342Y32012D01*
G01X32363Y32078D01*
G01X32386Y32124D01*
G01X32431Y32169D01*
G01X32500Y32192D01*
G01X32660Y32192D01*
G01X31873Y31715D02*
G01X32101Y32192D01*
G01X32190Y31715D02*
G01X31873Y31715D01*
G01X33827Y38021D02*
G01X33349Y38021D01*
G01X33349Y38021D02*
G01X33349Y37746D01*
G01X33827Y37596D02*
G01X33349Y37596D01*
G01X33827Y37596D02*
G01X33827Y37302D01*
G01X33598Y37596D02*
G01X33598Y37416D01*
G01X33349Y37596D02*
G01X33349Y37302D01*
G01X33827Y37152D02*
G01X33349Y37152D01*
G01X33827Y37152D02*
G01X33827Y36992D01*
G01X33804Y36923D01*
G01X33758Y36878D01*
G01X33713Y36855D01*
G01X33644Y36834D01*
G01X33530Y36834D01*
G01X33464Y36855D01*
G01X33418Y36878D01*
G01X33372Y36923D01*
G01X33349Y36992D01*
G01X33349Y37152D01*
G01X33827Y36410D02*
G01X33827Y36639D01*
G01X33621Y36662D01*
G01X33644Y36639D01*
G01X33667Y36570D01*
G01X33667Y36502D01*
G01X33644Y36433D01*
G01X33598Y36387D01*
G01X33530Y36365D01*
G01X33484Y36365D01*
G01X33418Y36387D01*
G01X33372Y36433D01*
G01X33349Y36502D01*
G01X33349Y36570D01*
G01X33372Y36639D01*
G01X33395Y36662D01*
G01X33441Y36682D01*
G01X35326Y34792D02*
G01X34963Y34792D01*
G01X34894Y34815D01*
G01X34872Y34837D01*
G01X34849Y34883D01*
G01X34849Y34929D01*
G01X34872Y34975D01*
G01X34894Y34997D01*
G01X34963Y35020D01*
G01X35009Y35020D01*
G01X35326Y34642D02*
G01X34849Y34642D01*
G01X35326Y34642D02*
G01X35326Y34439D01*
G01X35303Y34370D01*
G01X35280Y34347D01*
G01X35235Y34324D01*
G01X35189Y34324D01*
G01X35143Y34347D01*
G01X35120Y34370D01*
G01X35098Y34439D01*
G01X35098Y34642D01*
G01X35098Y34484D02*
G01X34849Y34324D01*
G01X37064Y31292D02*
G01X36701Y31292D01*
G01X36633Y31315D01*
G01X36610Y31338D01*
G01X36587Y31383D01*
G01X36587Y31429D01*
G01X36610Y31475D01*
G01X36633Y31498D01*
G01X36701Y31521D01*
G01X36747Y31521D01*
G01X37064Y31142D02*
G01X36587Y31142D01*
G01X37064Y31142D02*
G01X37064Y30939D01*
G01X37042Y30870D01*
G01X37019Y30847D01*
G01X36973Y30825D01*
G01X36927Y30825D01*
G01X36882Y30847D01*
G01X36859Y30870D01*
G01X36836Y30939D01*
G01X36836Y31142D01*
G01X36836Y30985D02*
G01X36587Y30825D01*
G01X36973Y30675D02*
G01X36996Y30629D01*
G01X37064Y30560D01*
G01X36587Y30560D01*
G01X39325Y27793D02*
G01X38962Y27793D01*
G01X38893Y27816D01*
G01X38873Y27837D01*
G01X38850Y27882D01*
G01X38850Y27928D01*
G01X38873Y27974D01*
G01X38893Y27997D01*
G01X38962Y28020D01*
G01X39007Y28020D01*
G01X39325Y27644D02*
G01X38850Y27644D01*
G01X39325Y27644D02*
G01X39325Y27438D01*
G01X39304Y27369D01*
G01X39282Y27346D01*
G01X39236Y27324D01*
G01X39190Y27324D01*
G01X39144Y27346D01*
G01X39122Y27369D01*
G01X39099Y27438D01*
G01X39099Y27644D01*
G01X39099Y27484D02*
G01X38850Y27324D01*
G01X39213Y27151D02*
G01X39236Y27151D01*
G01X39282Y27128D01*
G01X39304Y27105D01*
G01X39325Y27059D01*
G01X39325Y26971D01*
G01X39304Y26925D01*
G01X39282Y26902D01*
G01X39236Y26879D01*
G01X39190Y26879D01*
G01X39144Y26902D01*
G01X39076Y26948D01*
G01X38850Y27174D01*
G01X38850Y26856D01*
G01X31292Y35019D02*
G01X31770Y35019D01*
G01X31292Y35019D02*
G01X31292Y35224D01*
G01X31315Y35293D01*
G01X31338Y35316D01*
G01X31384Y35339D01*
G01X31429Y35339D01*
G01X31475Y35316D01*
G01X31498Y35293D01*
G01X31521Y35224D01*
G01X31521Y35019D01*
G01X31521Y35179D02*
G01X31770Y35339D01*
G01X31384Y35489D02*
G01X31361Y35534D01*
G01X31292Y35600D01*
G01X31770Y35600D01*
G01X32506Y32178D02*
G01X32480Y32234D01*
G01X32425Y32287D01*
G01X32371Y32315D01*
G01X32262Y32315D01*
G01X32206Y32287D01*
G01X32153Y32234D01*
G01X32125Y32178D01*
G01X32097Y32097D01*
G01X32097Y31959D01*
G01X32125Y31878D01*
G01X32153Y31825D01*
G01X32206Y31769D01*
G01X32262Y31741D01*
G01X32371Y31741D01*
G01X32425Y31769D01*
G01X32480Y31825D01*
G01X32506Y31878D01*
G01X32686Y32206D02*
G01X32742Y32234D01*
G01X32823Y32315D01*
G01X32823Y31741D01*
G01X38234Y47973D02*
G01X38234Y47496D01*
G01X38234Y47973D02*
G01X38394Y47973D01*
G01X38462Y47951D01*
G01X38508Y47905D01*
G01X38531Y47859D01*
G01X38554Y47793D01*
G01X38554Y47679D01*
G01X38531Y47610D01*
G01X38508Y47564D01*
G01X38462Y47519D01*
G01X38394Y47496D01*
G01X38234Y47496D01*
G01X38726Y47859D02*
G01X38726Y47882D01*
G01X38749Y47928D01*
G01X38770Y47951D01*
G01X38815Y47973D01*
G01X38907Y47973D01*
G01X38952Y47951D01*
G01X38975Y47928D01*
G01X38998Y47882D01*
G01X38998Y47839D01*
G01X38975Y47793D01*
G01X38930Y47724D01*
G01X38704Y47496D01*
G01X39021Y47496D01*
G01X40509Y47974D02*
G01X40509Y47496D01*
G01X40509Y47974D02*
G01X40669Y47974D01*
G01X40737Y47951D01*
G01X40783Y47905D01*
G01X40806Y47859D01*
G01X40829Y47793D01*
G01X40829Y47679D01*
G01X40806Y47610D01*
G01X40783Y47565D01*
G01X40737Y47519D01*
G01X40669Y47496D01*
G01X40509Y47496D01*
G01X40979Y47882D02*
G01X41022Y47905D01*
G01X41090Y47974D01*
G01X41090Y47496D01*
G01X47910Y43549D02*
G01X47910Y43071D01*
G01X47910Y43549D02*
G01X48113Y43549D01*
G01X48181Y43526D01*
G01X48204Y43503D01*
G01X48227Y43457D01*
G01X48227Y43412D01*
G01X48204Y43366D01*
G01X48181Y43343D01*
G01X48113Y43323D01*
G01X47910Y43323D01*
G01X48070Y43323D02*
G01X48227Y43071D01*
G01X48697Y43480D02*
G01X48651Y43526D01*
G01X48583Y43549D01*
G01X48491Y43549D01*
G01X48423Y43526D01*
G01X48377Y43480D01*
G01X48377Y43434D01*
G01X48400Y43389D01*
G01X48423Y43366D01*
G01X48468Y43343D01*
G01X48605Y43300D01*
G01X48651Y43277D01*
G01X48674Y43254D01*
G01X48697Y43208D01*
G01X48697Y43140D01*
G01X48651Y43094D01*
G01X48583Y43071D01*
G01X48491Y43071D01*
G01X48423Y43094D01*
G01X48377Y43140D01*
G01X48981Y43549D02*
G01X48913Y43526D01*
G01X48870Y43457D01*
G01X48847Y43343D01*
G01X48847Y43277D01*
G01X48870Y43163D01*
G01X48913Y43094D01*
G01X48981Y43071D01*
G01X49027Y43071D01*
G01X49096Y43094D01*
G01X49141Y43163D01*
G01X49164Y43277D01*
G01X49164Y43343D01*
G01X49141Y43457D01*
G01X49096Y43526D01*
G01X49027Y43549D01*
G01X48981Y43549D01*
G01X47960Y45048D02*
G01X47960Y44573D01*
G01X47960Y45048D02*
G01X48164Y45048D01*
G01X48232Y45025D01*
G01X48255Y45004D01*
G01X48278Y44959D01*
G01X48278Y44913D01*
G01X48255Y44867D01*
G01X48232Y44844D01*
G01X48164Y44822D01*
G01X47960Y44822D01*
G01X48118Y44822D02*
G01X48278Y44573D01*
G01X48745Y44982D02*
G01X48700Y45025D01*
G01X48631Y45048D01*
G01X48542Y45048D01*
G01X48474Y45025D01*
G01X48428Y44982D01*
G01X48428Y44936D01*
G01X48451Y44890D01*
G01X48474Y44867D01*
G01X48519Y44844D01*
G01X48654Y44799D01*
G01X48700Y44776D01*
G01X48722Y44753D01*
G01X48745Y44707D01*
G01X48745Y44639D01*
G01X48700Y44593D01*
G01X48631Y44573D01*
G01X48542Y44573D01*
G01X48474Y44593D01*
G01X48428Y44639D01*
G01X48895Y44959D02*
G01X48941Y44982D01*
G01X49009Y45048D01*
G01X49009Y44573D01*
G01X47809Y46499D02*
G01X47809Y46021D01*
G01X47809Y46499D02*
G01X48015Y46499D01*
G01X48083Y46476D01*
G01X48104Y46453D01*
G01X48126Y46407D01*
G01X48126Y46362D01*
G01X48104Y46316D01*
G01X48083Y46293D01*
G01X48015Y46270D01*
G01X47809Y46270D01*
G01X47969Y46270D02*
G01X48126Y46021D01*
G01X48596Y46430D02*
G01X48551Y46476D01*
G01X48482Y46499D01*
G01X48391Y46499D01*
G01X48322Y46476D01*
G01X48276Y46430D01*
G01X48276Y46384D01*
G01X48299Y46339D01*
G01X48322Y46316D01*
G01X48368Y46293D01*
G01X48505Y46250D01*
G01X48551Y46227D01*
G01X48573Y46204D01*
G01X48596Y46158D01*
G01X48596Y46090D01*
G01X48551Y46044D01*
G01X48482Y46021D01*
G01X48391Y46021D01*
G01X48322Y46044D01*
G01X48276Y46090D01*
G01X48769Y46384D02*
G01X48769Y46407D01*
G01X48792Y46453D01*
G01X48815Y46476D01*
G01X48860Y46499D01*
G01X48949Y46499D01*
G01X48995Y46476D01*
G01X49018Y46453D01*
G01X49041Y46407D01*
G01X49041Y46362D01*
G01X49018Y46316D01*
G01X48972Y46250D01*
G01X48746Y46021D01*
G01X49064Y46021D01*
G01X47860Y47948D02*
G01X47860Y47471D01*
G01X47860Y47948D02*
G01X48063Y47948D01*
G01X48132Y47925D01*
G01X48155Y47903D01*
G01X48177Y47857D01*
G01X48177Y47811D01*
G01X48155Y47768D01*
G01X48132Y47745D01*
G01X48063Y47722D01*
G01X47860Y47722D01*
G01X48017Y47722D02*
G01X48177Y47471D01*
G01X48645Y47880D02*
G01X48599Y47925D01*
G01X48533Y47948D01*
G01X48442Y47948D01*
G01X48373Y47925D01*
G01X48327Y47880D01*
G01X48327Y47834D01*
G01X48350Y47791D01*
G01X48373Y47768D01*
G01X48419Y47745D01*
G01X48556Y47699D01*
G01X48599Y47676D01*
G01X48622Y47654D01*
G01X48645Y47608D01*
G01X48645Y47539D01*
G01X48599Y47494D01*
G01X48533Y47471D01*
G01X48442Y47471D01*
G01X48373Y47494D01*
G01X48327Y47539D01*
G01X48840Y47948D02*
G01X49092Y47948D01*
G01X48955Y47768D01*
G01X49023Y47768D01*
G01X49069Y47745D01*
G01X49092Y47722D01*
G01X49115Y47654D01*
G01X49115Y47608D01*
G01X49092Y47539D01*
G01X49046Y47494D01*
G01X48977Y47471D01*
G01X48909Y47471D01*
G01X48840Y47494D01*
G01X48817Y47516D01*
G01X48795Y47562D01*
G01X38560Y35324D02*
G01X38560Y34846D01*
G01X38560Y35324D02*
G01X38764Y35324D01*
G01X38832Y35301D01*
G01X38855Y35278D01*
G01X38878Y35232D01*
G01X38878Y35189D01*
G01X38855Y35143D01*
G01X38832Y35120D01*
G01X38764Y35098D01*
G01X38560Y35098D01*
G01X38718Y35098D02*
G01X38878Y34846D01*
G01X39028Y35324D02*
G01X39028Y34846D01*
G01X39028Y35324D02*
G01X39231Y35324D01*
G01X39300Y35301D01*
G01X39322Y35278D01*
G01X39345Y35232D01*
G01X39345Y35166D01*
G01X39322Y35120D01*
G01X39300Y35098D01*
G01X39231Y35075D01*
G01X39028Y35075D01*
G01X39495Y35324D02*
G01X39495Y34983D01*
G01X39518Y34915D01*
G01X39564Y34869D01*
G01X39632Y34846D01*
G01X39678Y34846D01*
G01X39747Y34869D01*
G01X39792Y34915D01*
G01X39815Y34983D01*
G01X39815Y35324D01*
G01X36010Y37774D02*
G01X36010Y37297D01*
G01X36010Y37774D02*
G01X36214Y37774D01*
G01X36282Y37752D01*
G01X36305Y37729D01*
G01X36328Y37683D01*
G01X36328Y37637D01*
G01X36305Y37592D01*
G01X36282Y37569D01*
G01X36214Y37546D01*
G01X36010Y37546D01*
G01X36168Y37546D02*
G01X36328Y37297D01*
G01X36478Y37774D02*
G01X36478Y37297D01*
G01X36478Y37774D02*
G01X36681Y37774D01*
G01X36750Y37752D01*
G01X36772Y37729D01*
G01X36795Y37683D01*
G01X36795Y37614D01*
G01X36772Y37569D01*
G01X36750Y37546D01*
G01X36681Y37523D01*
G01X36478Y37523D01*
G01X36945Y37774D02*
G01X36945Y37434D01*
G01X36968Y37365D01*
G01X37014Y37320D01*
G01X37082Y37297D01*
G01X37128Y37297D01*
G01X37197Y37320D01*
G01X37242Y37365D01*
G01X37265Y37434D01*
G01X37265Y37774D01*
G01X37415Y37683D02*
G01X37461Y37706D01*
G01X37527Y37774D01*
G01X37527Y37297D01*
G01X34923Y46787D02*
G01X34923Y46309D01*
G01X34923Y46787D02*
G01X35126Y46787D01*
G01X35195Y46764D01*
G01X35218Y46741D01*
G01X35241Y46695D01*
G01X35241Y46652D01*
G01X35218Y46606D01*
G01X35195Y46584D01*
G01X35126Y46561D01*
G01X34923Y46561D01*
G01X35081Y46561D02*
G01X35241Y46309D01*
G01X35390Y46787D02*
G01X35390Y46309D01*
G01X35390Y46787D02*
G01X35594Y46787D01*
G01X35662Y46764D01*
G01X35685Y46741D01*
G01X35708Y46695D01*
G01X35708Y46629D01*
G01X35685Y46584D01*
G01X35662Y46561D01*
G01X35594Y46538D01*
G01X35390Y46538D01*
G01X35858Y46787D02*
G01X35858Y46446D01*
G01X35881Y46378D01*
G01X35926Y46332D01*
G01X35995Y46309D01*
G01X36041Y46309D01*
G01X36109Y46332D01*
G01X36155Y46378D01*
G01X36175Y46446D01*
G01X36175Y46787D01*
G01X36371Y46787D02*
G01X36622Y46787D01*
G01X36485Y46606D01*
G01X36554Y46606D01*
G01X36600Y46584D01*
G01X36622Y46561D01*
G01X36645Y46492D01*
G01X36645Y46446D01*
G01X36622Y46378D01*
G01X36577Y46332D01*
G01X36508Y46309D01*
G01X36439Y46309D01*
G01X36371Y46332D01*
G01X36348Y46355D01*
G01X36328Y46401D01*
G01X34611Y46023D02*
G01X34611Y45546D01*
G01X34611Y46023D02*
G01X34814Y46023D01*
G01X34882Y46001D01*
G01X34905Y45978D01*
G01X34928Y45935D01*
G01X34928Y45889D01*
G01X34905Y45843D01*
G01X34882Y45820D01*
G01X34814Y45797D01*
G01X34611Y45797D01*
G01X34768Y45797D02*
G01X34928Y45546D01*
G01X35078Y46023D02*
G01X35078Y45546D01*
G01X35078Y46023D02*
G01X35281Y46023D01*
G01X35350Y46001D01*
G01X35373Y45978D01*
G01X35395Y45935D01*
G01X35395Y45866D01*
G01X35373Y45820D01*
G01X35350Y45797D01*
G01X35281Y45775D01*
G01X35078Y45775D01*
G01X35545Y46023D02*
G01X35545Y45683D01*
G01X35568Y45615D01*
G01X35614Y45569D01*
G01X35683Y45546D01*
G01X35728Y45546D01*
G01X35797Y45569D01*
G01X35843Y45615D01*
G01X35863Y45683D01*
G01X35863Y46023D01*
G01X36036Y45912D02*
G01X36036Y45935D01*
G01X36058Y45978D01*
G01X36081Y46001D01*
G01X36127Y46023D01*
G01X36218Y46023D01*
G01X36264Y46001D01*
G01X36287Y45978D01*
G01X36310Y45935D01*
G01X36310Y45889D01*
G01X36287Y45843D01*
G01X36241Y45775D01*
G01X36015Y45546D01*
G01X36333Y45546D01*
G01X38959Y33224D02*
G01X38959Y32746D01*
G01X38959Y33224D02*
G01X39120Y33224D01*
G01X39186Y33201D01*
G01X39231Y33155D01*
G01X39254Y33112D01*
G01X39277Y33043D01*
G01X39277Y32929D01*
G01X39254Y32860D01*
G01X39231Y32815D01*
G01X39186Y32769D01*
G01X39120Y32746D01*
G01X38959Y32746D01*
G01X39701Y33155D02*
G01X39678Y33201D01*
G01X39610Y33224D01*
G01X39564Y33224D01*
G01X39495Y33201D01*
G01X39450Y33135D01*
G01X39427Y33020D01*
G01X39427Y32906D01*
G01X39450Y32815D01*
G01X39495Y32769D01*
G01X39564Y32746D01*
G01X39587Y32746D01*
G01X39655Y32769D01*
G01X39701Y32815D01*
G01X39724Y32883D01*
G01X39724Y32906D01*
G01X39701Y32975D01*
G01X39655Y33020D01*
G01X39587Y33043D01*
G01X39564Y33043D01*
G01X39495Y33020D01*
G01X39450Y32975D01*
G01X39427Y32906D01*
G01X39061Y31225D02*
G01X39061Y30747D01*
G01X39061Y31225D02*
G01X39218Y31225D01*
G01X39287Y31202D01*
G01X39332Y31156D01*
G01X39355Y31111D01*
G01X39378Y31042D01*
G01X39378Y30928D01*
G01X39355Y30862D01*
G01X39332Y30816D01*
G01X39287Y30770D01*
G01X39218Y30747D01*
G01X39061Y30747D01*
G01X39574Y31225D02*
G01X39823Y31225D01*
G01X39688Y31042D01*
G01X39754Y31042D01*
G01X39800Y31019D01*
G01X39823Y30996D01*
G01X39845Y30928D01*
G01X39845Y30884D01*
G01X39823Y30816D01*
G01X39777Y30770D01*
G01X39708Y30747D01*
G01X39642Y30747D01*
G01X39574Y30770D01*
G01X39551Y30793D01*
G01X39528Y30839D01*
G01X32559Y48775D02*
G01X32559Y48298D01*
G01X32559Y48775D02*
G01X32720Y48775D01*
G01X32786Y48752D01*
G01X32831Y48707D01*
G01X32854Y48661D01*
G01X32877Y48592D01*
G01X32877Y48478D01*
G01X32854Y48409D01*
G01X32831Y48366D01*
G01X32786Y48321D01*
G01X32720Y48298D01*
G01X32559Y48298D01*
G01X33255Y48775D02*
G01X33027Y48455D01*
G01X33370Y48455D01*
G01X33255Y48775D02*
G01X33255Y48298D01*
G01X33014Y41052D02*
G01X33014Y41530D01*
G01X33014Y41052D02*
G01X32854Y41052D01*
G01X32786Y41075D01*
G01X32740Y41121D01*
G01X32717Y41167D01*
G01X32697Y41235D01*
G01X32697Y41349D01*
G01X32717Y41418D01*
G01X32740Y41461D01*
G01X32786Y41507D01*
G01X32854Y41530D01*
G01X33014Y41530D01*
G01X32272Y41052D02*
G01X32501Y41052D01*
G01X32521Y41258D01*
G01X32501Y41235D01*
G01X32432Y41212D01*
G01X32364Y41212D01*
G01X32295Y41235D01*
G01X32250Y41281D01*
G01X32227Y41349D01*
G01X32227Y41395D01*
G01X32250Y41461D01*
G01X32295Y41507D01*
G01X32364Y41530D01*
G01X32432Y41530D01*
G01X32501Y41507D01*
G01X32521Y41484D01*
G01X32544Y41438D01*
G01X32729Y24720D02*
G01X32729Y24311D01*
G01X32754Y24230D01*
G01X32810Y24176D01*
G01X32891Y24148D01*
G01X32945Y24148D01*
G01X33028Y24176D01*
G01X33082Y24230D01*
G01X33110Y24311D01*
G01X33110Y24720D01*
G01X33290Y24611D02*
G01X33343Y24639D01*
G01X33425Y24720D01*
G01X33425Y24148D01*
G01X36058Y38430D02*
G01X36012Y38407D01*
G01X35967Y38362D01*
G01X35946Y38316D01*
G01X35946Y38227D01*
G01X35967Y38181D01*
G01X36012Y38136D01*
G01X36058Y38113D01*
G01X36127Y38090D01*
G01X36241Y38090D01*
G01X36310Y38113D01*
G01X36355Y38136D01*
G01X36398Y38181D01*
G01X36421Y38227D01*
G01X36421Y38316D01*
G01X36398Y38362D01*
G01X36355Y38407D01*
G01X36310Y38430D01*
G01X36012Y38854D02*
G01X35967Y38832D01*
G01X35946Y38763D01*
G01X35946Y38717D01*
G01X35967Y38649D01*
G01X36035Y38603D01*
G01X36150Y38580D01*
G01X36264Y38580D01*
G01X36355Y38603D01*
G01X36398Y38649D01*
G01X36421Y38717D01*
G01X36421Y38740D01*
G01X36398Y38809D01*
G01X36355Y38854D01*
G01X36287Y38875D01*
G01X36264Y38875D01*
G01X36195Y38854D01*
G01X36150Y38809D01*
G01X36127Y38740D01*
G01X36127Y38717D01*
G01X36150Y38649D01*
G01X36195Y38603D01*
G01X36264Y38580D01*
G01X33656Y39819D02*
G01X34133Y39819D01*
G01X33656Y39819D02*
G01X34133Y40002D01*
G01X33656Y40184D02*
G01X34133Y40002D01*
G01X33656Y40184D02*
G01X34133Y40184D01*
G01X33768Y40675D02*
G01X33722Y40652D01*
G01X33679Y40606D01*
G01X33656Y40560D01*
G01X33656Y40469D01*
G01X33679Y40423D01*
G01X33722Y40380D01*
G01X33768Y40357D01*
G01X33836Y40334D01*
G01X33951Y40334D01*
G01X34019Y40357D01*
G01X34065Y40380D01*
G01X34111Y40423D01*
G01X34133Y40469D01*
G01X34133Y40560D01*
G01X34111Y40606D01*
G01X34065Y40652D01*
G01X34019Y40675D01*
G01X33656Y40825D02*
G01X33996Y40825D01*
G01X34065Y40847D01*
G01X34111Y40893D01*
G01X34133Y40962D01*
G01X34133Y41005D01*
G01X34111Y41073D01*
G01X34065Y41119D01*
G01X33996Y41142D01*
G01X33656Y41142D01*
G54D10*
G75*
G01X31712Y26097D02*
G02X31712Y24827I0J-635D01*
G01*
G75*
G01X31674Y23303D02*
G03X31674Y23303I-190J0D01*
G01*
G54D33*
G75*
G01X34710Y40420D02*
G03X34710Y40420I-50J0D01*
G01*
M00*
M02*
