G04 Layer: TopSolderMaskLayer*
G04 EasyEDA v6.3.22, 2020-02-04T20:47:36+01:00*
G04 23f8c3a8da344597b0e8ce6df696b462,1e61c1b39cbf46459d8771e8f21e6a9c,10*
G04 Gerber Generator version 0.2*
G04 Scale: 100 percent, Rotated: No, Reflected: No *
G04 Dimensions in millimeters *
G04 leading zeros omitted , absolute positions ,3 integer and 3 decimal *
%FSLAX33Y33*%
%MOMM*%
G90*
G71D02*

%ADD34C,0.903199*%
%ADD35C,1.803197*%
%ADD40C,1.011199*%

%LPD*%
G54D34*
G01X32219Y21714D02*
G01X32219Y23214D01*
G01X33489Y21714D02*
G01X33489Y23214D01*
G01X34759Y21714D02*
G01X34759Y23214D01*
G01X36029Y21714D02*
G01X36029Y23214D01*
G01X32219Y27760D02*
G01X32219Y29260D01*
G01X33489Y27760D02*
G01X33489Y29260D01*
G01X34759Y27760D02*
G01X34759Y29260D01*
G01X36029Y27760D02*
G01X36029Y29260D01*
G54D35*
G01X38310Y51020D03*
G01X41560Y51020D03*
G01X44809Y51020D03*
G01X35059Y51020D03*
G01X32059Y51020D03*
G36*
G01X32807Y32368D02*
G01X32807Y33272D01*
G01X33412Y33272D01*
G01X33412Y32368D01*
G01X32807Y32368D01*
G37*
G36*
G01X32109Y32368D02*
G01X32109Y33272D01*
G01X32711Y33272D01*
G01X32711Y32368D01*
G01X32109Y32368D01*
G37*
G36*
G01X31974Y38337D02*
G01X31974Y39404D01*
G01X33143Y39404D01*
G01X33143Y38337D01*
G01X31974Y38337D01*
G37*
G36*
G01X31974Y36635D02*
G01X31974Y37702D01*
G01X33143Y37702D01*
G01X33143Y36635D01*
G01X31974Y36635D01*
G37*
G36*
G01X33958Y34067D02*
G01X33958Y35370D01*
G01X35162Y35370D01*
G01X35162Y34067D01*
G01X33958Y34067D01*
G37*
G36*
G01X33958Y32368D02*
G01X33958Y33671D01*
G01X35162Y33671D01*
G01X35162Y32368D01*
G01X33958Y32368D01*
G37*
G36*
G01X37608Y32419D02*
G01X37608Y33620D01*
G01X38911Y33620D01*
G01X38911Y32419D01*
G01X37608Y32419D01*
G37*
G36*
G01X35909Y32419D02*
G01X35909Y33620D01*
G01X37212Y33620D01*
G01X37212Y32419D01*
G01X35909Y32419D01*
G37*
G36*
G01X37458Y28068D02*
G01X37458Y29371D01*
G01X38662Y29371D01*
G01X38662Y28068D01*
G01X37458Y28068D01*
G37*
G36*
G01X37458Y26368D02*
G01X37458Y27671D01*
G01X38662Y27671D01*
G01X38662Y26368D01*
G01X37458Y26368D01*
G37*
G36*
G01X31959Y33668D02*
G01X31959Y34971D01*
G01X33161Y34971D01*
G01X33161Y33668D01*
G01X31959Y33668D01*
G37*
G36*
G01X31959Y35368D02*
G01X31959Y36671D01*
G01X33161Y36671D01*
G01X33161Y35368D01*
G01X31959Y35368D01*
G37*
G36*
G01X31708Y30417D02*
G01X31708Y31621D01*
G01X33011Y31621D01*
G01X33011Y30417D01*
G01X31708Y30417D01*
G37*
G36*
G01X33407Y30417D02*
G01X33407Y31621D01*
G01X34710Y31621D01*
G01X34710Y30417D01*
G01X33407Y30417D01*
G37*
G36*
G01X37659Y48068D02*
G01X37659Y48972D01*
G01X38261Y48972D01*
G01X38261Y48068D01*
G01X37659Y48068D01*
G37*
G36*
G01X38357Y48068D02*
G01X38357Y48972D01*
G01X38962Y48972D01*
G01X38962Y48068D01*
G01X38357Y48068D01*
G37*
G36*
G01X40359Y48068D02*
G01X40359Y48972D01*
G01X40961Y48972D01*
G01X40961Y48068D01*
G01X40359Y48068D01*
G37*
G36*
G01X39658Y48068D02*
G01X39658Y48972D01*
G01X40260Y48972D01*
G01X40260Y48068D01*
G01X39658Y48068D01*
G37*
G36*
G01X44558Y42693D02*
G01X44558Y43897D01*
G01X45861Y43897D01*
G01X45861Y42693D01*
G01X44558Y42693D01*
G37*
G36*
G01X46257Y42693D02*
G01X46257Y43897D01*
G01X47562Y43897D01*
G01X47562Y42693D01*
G01X46257Y42693D01*
G37*
G36*
G01X44558Y44192D02*
G01X44558Y45396D01*
G01X45861Y45396D01*
G01X45861Y44192D01*
G01X44558Y44192D01*
G37*
G36*
G01X46257Y44192D02*
G01X46257Y45396D01*
G01X47562Y45396D01*
G01X47562Y44192D01*
G01X46257Y44192D01*
G37*
G36*
G01X44558Y45693D02*
G01X44558Y46897D01*
G01X45861Y46897D01*
G01X45861Y45693D01*
G01X44558Y45693D01*
G37*
G36*
G01X46257Y45693D02*
G01X46257Y46897D01*
G01X47562Y46897D01*
G01X47562Y45693D01*
G01X46257Y45693D01*
G37*
G36*
G01X44558Y47194D02*
G01X44558Y48395D01*
G01X45861Y48395D01*
G01X45861Y47194D01*
G01X44558Y47194D01*
G37*
G36*
G01X46257Y47194D02*
G01X46257Y48395D01*
G01X47562Y48395D01*
G01X47562Y47194D01*
G01X46257Y47194D01*
G37*
G36*
G01X37608Y34169D02*
G01X37608Y35370D01*
G01X38911Y35370D01*
G01X38911Y34169D01*
G01X37608Y34169D01*
G37*
G36*
G01X35909Y34169D02*
G01X35909Y35370D01*
G01X37212Y35370D01*
G01X37212Y34169D01*
G01X35909Y34169D01*
G37*
G36*
G01X37608Y35919D02*
G01X37608Y37120D01*
G01X38911Y37120D01*
G01X38911Y35919D01*
G01X37608Y35919D01*
G37*
G36*
G01X35909Y35919D02*
G01X35909Y37120D01*
G01X37212Y37120D01*
G01X37212Y35919D01*
G01X35909Y35919D01*
G37*
G36*
G01X33509Y44918D02*
G01X33509Y46122D01*
G01X34812Y46122D01*
G01X34812Y44918D01*
G01X33509Y44918D01*
G37*
G36*
G01X35208Y44918D02*
G01X35208Y46122D01*
G01X36511Y46122D01*
G01X36511Y44918D01*
G01X35208Y44918D01*
G37*
G36*
G01X33509Y46419D02*
G01X33509Y47621D01*
G01X34812Y47621D01*
G01X34812Y46419D01*
G01X33509Y46419D01*
G37*
G36*
G01X35208Y46419D02*
G01X35208Y47621D01*
G01X36511Y47621D01*
G01X36511Y46419D01*
G01X35208Y46419D01*
G37*
G36*
G01X38078Y31448D02*
G01X38078Y32350D01*
G01X38680Y32350D01*
G01X38680Y31448D01*
G01X38078Y31448D01*
G37*
G36*
G01X37377Y31448D02*
G01X37377Y32350D01*
G01X37981Y32350D01*
G01X37981Y31448D01*
G01X37377Y31448D01*
G37*
G36*
G01X38108Y30069D02*
G01X38108Y30971D01*
G01X38710Y30971D01*
G01X38710Y30069D01*
G01X38108Y30069D01*
G37*
G36*
G01X37407Y30069D02*
G01X37407Y30971D01*
G01X38012Y30971D01*
G01X38012Y30069D01*
G01X37407Y30069D01*
G37*
G36*
G01X34357Y48068D02*
G01X34357Y48972D01*
G01X34961Y48972D01*
G01X34961Y48068D01*
G01X34357Y48068D01*
G37*
G36*
G01X33658Y48068D02*
G01X33658Y48972D01*
G01X34260Y48972D01*
G01X34260Y48068D01*
G01X33658Y48068D01*
G37*
G36*
G01X32807Y41868D02*
G01X32807Y42772D01*
G01X33412Y42772D01*
G01X33412Y41868D01*
G01X32807Y41868D01*
G37*
G36*
G01X32109Y41868D02*
G01X32109Y42772D01*
G01X32711Y42772D01*
G01X32711Y41868D01*
G01X32109Y41868D01*
G37*
G36*
G01X27019Y25883D02*
G01X27019Y26386D01*
G01X27971Y26386D01*
G01X27971Y25883D01*
G01X27019Y25883D01*
G37*
G54D40*
G01X23685Y24864D03*
G36*
G01X36409Y37918D02*
G01X36409Y39122D01*
G01X37512Y39122D01*
G01X37512Y37918D01*
G01X36409Y37918D01*
G37*
G36*
G01X34809Y37918D02*
G01X34809Y39122D01*
G01X35911Y39122D01*
G01X35911Y37918D01*
G01X34809Y37918D01*
G37*
G36*
G01X35299Y39919D02*
G01X35299Y40722D01*
G01X35721Y40722D01*
G01X35721Y39919D01*
G01X35299Y39919D01*
G37*
G36*
G01X35749Y39919D02*
G01X35749Y40722D01*
G01X36170Y40722D01*
G01X36170Y39919D01*
G01X35749Y39919D01*
G37*
G36*
G01X36198Y39919D02*
G01X36198Y40722D01*
G01X36620Y40722D01*
G01X36620Y39919D01*
G01X36198Y39919D01*
G37*
G36*
G01X36958Y41057D02*
G01X36958Y41481D01*
G01X37760Y41481D01*
G01X37760Y41057D01*
G01X36958Y41057D01*
G37*
G36*
G01X36958Y41509D02*
G01X36958Y41931D01*
G01X37760Y41931D01*
G01X37760Y41509D01*
G01X36958Y41509D01*
G37*
G36*
G01X36958Y41959D02*
G01X36958Y42381D01*
G01X37760Y42381D01*
G01X37760Y41959D01*
G01X36958Y41959D01*
G37*
G36*
G01X36198Y42718D02*
G01X36198Y43521D01*
G01X36620Y43521D01*
G01X36620Y42718D01*
G01X36198Y42718D01*
G37*
G36*
G01X35749Y42718D02*
G01X35749Y43521D01*
G01X36170Y43521D01*
G01X36170Y42718D01*
G01X35749Y42718D01*
G37*
G36*
G01X35297Y42718D02*
G01X35297Y43521D01*
G01X35721Y43521D01*
G01X35721Y42718D01*
G01X35297Y42718D01*
G37*
G36*
G01X34159Y41959D02*
G01X34159Y42381D01*
G01X34961Y42381D01*
G01X34961Y41959D01*
G01X34159Y41959D01*
G37*
G36*
G01X34159Y41509D02*
G01X34159Y41931D01*
G01X34961Y41931D01*
G01X34961Y41509D01*
G01X34159Y41509D01*
G37*
G36*
G01X34159Y41057D02*
G01X34159Y41481D01*
G01X34961Y41481D01*
G01X34961Y41057D01*
G01X34159Y41057D01*
G37*
G36*
G01X35297Y40844D02*
G01X35083Y41057D01*
G01X35083Y42596D01*
G01X36836Y42596D01*
G01X36836Y40844D01*
G01X35297Y40844D01*
G37*
G36*
G01X34847Y39919D02*
G01X34847Y40501D01*
G01X35066Y40722D01*
G01X35271Y40722D01*
G01X35271Y39919D01*
G01X34847Y39919D01*
G37*
G36*
G01X37176Y40608D02*
G01X36958Y40826D01*
G01X36958Y41032D01*
G01X37760Y41032D01*
G01X37760Y40608D01*
G01X37176Y40608D01*
G37*
G36*
G01X34159Y42409D02*
G01X34159Y42833D01*
G01X34743Y42833D01*
G01X34961Y42612D01*
G01X34961Y42409D01*
G01X34159Y42409D01*
G37*
G36*
G01X36648Y42718D02*
G01X36648Y43521D01*
G01X37072Y43521D01*
G01X37072Y42937D01*
G01X36854Y42718D01*
G01X36648Y42718D01*
G37*
G36*
G01X36958Y42409D02*
G01X36958Y42612D01*
G01X37176Y42833D01*
G01X37760Y42833D01*
G01X37760Y42409D01*
G01X36958Y42409D01*
G37*
G36*
G01X35066Y42718D02*
G01X34847Y42937D01*
G01X34847Y43521D01*
G01X35271Y43521D01*
G01X35271Y42718D01*
G01X35066Y42718D01*
G37*
G36*
G01X34159Y40608D02*
G01X34159Y41032D01*
G01X34961Y41032D01*
G01X34961Y40826D01*
G01X34743Y40608D01*
G01X34159Y40608D01*
G37*
G36*
G01X36648Y39919D02*
G01X36648Y40722D01*
G01X36854Y40722D01*
G01X37072Y40501D01*
G01X37072Y39919D01*
G01X36648Y39919D01*
G37*
M00*
M02*
